{"glyphs":{"0":{"ha":669,"x_min":0,"x_max":0,"o":"m 335 -17 b 604 447 506 -17 604 151 b 335 904 604 742 506 904 b 67 447 164 904 67 742 b 335 -17 67 151 164 -17 z m 335 44 b 138 447 215 44 138 178 b 335 844 138 715 215 844 b 532 447 454 844 532 715 b 335 44 532 178 454 44 z "},"1":{"ha":615,"x_min":0,"x_max":0,"o":"m 72 0 l 543 0 l 543 63 l 351 63 l 351 888 l 294 888 b 121 831 251 863 194 842 l 121 782 l 281 782 l 281 63 l 72 63 l 72 0 z "},"2":{"ha":669,"x_min":0,"x_max":0,"o":"m 57 0 l 606 0 l 606 63 l 313 63 b 163 57 264 63 213 60 b 563 653 403 310 563 478 b 308 904 563 804 468 904 b 53 772 200 904 121 849 l 99 729 b 301 843 151 794 222 843 b 490 651 432 843 490 760 b 57 44 490 499 343 335 l 57 0 z "},"3":{"ha":669,"x_min":0,"x_max":0,"o":"m 322 -17 b 599 235 478 -17 599 79 b 399 464 599 360 508 442 l 399 471 b 565 688 494 504 565 574 b 319 904 565 825 460 904 b 76 796 217 904 139 856 l 118 747 b 318 843 168 801 239 843 b 492 682 424 843 492 781 b 221 496 492 579 422 496 l 221 435 b 525 235 439 435 525 353 b 321 46 525 121 439 46 b 79 157 203 46 132 100 l 40 108 b 322 -17 97 47 181 -17 z "},"4":{"ha":669,"x_min":0,"x_max":0,"o":"m 628 321 l 497 321 l 497 888 l 429 888 l 24 306 l 24 261 l 429 261 l 429 0 l 497 0 l 497 261 l 628 261 l 628 321 z m 107 321 l 357 676 b 429 790 382 718 407 751 l 435 790 b 429 633 432 749 429 675 l 429 321 l 107 321 z "},"5":{"ha":669,"x_min":0,"x_max":0,"o":"m 317 -17 b 603 281 463 -17 603 90 b 332 560 603 474 482 560 b 178 515 268 560 222 542 l 206 825 l 557 825 l 557 888 l 142 888 l 110 471 l 156 442 b 318 500 208 478 251 500 b 529 276 446 500 529 415 b 314 46 529 138 431 46 b 75 153 196 46 128 97 l 35 104 b 317 -17 93 46 175 -17 z "},"6":{"ha":669,"x_min":0,"x_max":0,"o":"m 363 536 b 142 415 282 536 203 489 b 400 843 144 733 263 843 b 550 769 457 843 511 817 l 593 817 b 400 904 546 868 485 904 b 72 404 228 904 72 772 b 364 -17 72 132 188 -17 b 611 263 497 -17 611 99 b 363 536 611 442 518 536 z m 365 43 b 143 347 228 43 156 161 b 354 479 213 443 292 479 b 540 263 483 479 540 388 b 365 43 540 138 465 43 z "},"7":{"ha":669,"x_min":0,"x_max":0,"o":"m 258 0 l 335 0 b 611 844 349 347 399 565 l 611 888 l 61 888 l 61 825 l 524 825 b 258 0 346 576 272 353 z "},"8":{"ha":669,"x_min":0,"x_max":0,"o":"m 339 -17 b 613 217 503 -17 613 86 b 457 443 613 336 533 396 l 457 449 b 582 672 508 489 582 575 b 340 904 582 806 493 904 b 106 685 208 904 106 815 b 231 482 106 592 167 525 l 231 476 b 56 228 147 432 56 347 b 339 -17 56 88 175 -17 z m 404 468 b 174 685 290 514 174 563 b 340 847 174 779 243 847 b 515 669 451 847 515 765 b 404 468 515 594 476 528 z m 340 42 b 125 232 215 42 125 125 b 275 450 125 325 189 399 b 540 218 411 396 540 350 b 340 42 540 118 461 42 z "},"9":{"ha":669,"x_min":0,"x_max":0,"o":"m 306 904 b 58 625 172 904 58 789 b 307 351 58 446 151 351 b 528 472 388 351 467 399 b 269 46 525 154 407 46 b 119 118 213 46 157 71 l 76 71 b 269 -17 122 19 185 -17 b 597 483 442 -17 597 115 b 306 904 597 756 482 904 z m 315 410 b 129 625 186 410 129 500 b 304 844 129 750 204 844 b 526 540 442 844 514 726 b 315 410 457 446 378 410 z "},"A":{"ha":736,"x_min":0,"x_max":0,"o":"m 647 0 l 726 0 l 406 915 l 329 915 l 10 0 l 85 0 l 189 307 l 544 307 l 647 0 z m 210 368 l 265 533 b 364 847 301 640 333 738 l 369 847 b 469 533 401 738 433 640 l 525 368 l 210 368 z "},"Á":{"ha":736,"x_min":0,"x_max":0,"o":"m 529 1136 l 483 1188 l 307 1015 l 339 979 l 529 1136 z m 647 0 l 726 0 l 406 915 l 329 915 l 10 0 l 85 0 l 189 307 l 544 307 l 647 0 z m 210 368 l 265 533 b 364 847 301 640 333 738 l 369 847 b 469 533 401 738 433 640 l 525 368 l 210 368 z "},"Ă":{"ha":736,"x_min":0,"x_max":0,"o":"m 367 985 b 558 1158 490 985 547 1074 l 508 1167 b 367 1036 497 1097 454 1036 b 225 1167 279 1036 236 1097 l 175 1158 b 367 985 186 1074 243 985 z m 647 0 l 726 0 l 406 915 l 329 915 l 10 0 l 85 0 l 189 307 l 544 307 l 647 0 z m 210 368 l 265 533 b 364 847 301 640 333 738 l 369 847 b 469 533 401 738 433 640 l 525 368 l 210 368 z "},"Â":{"ha":736,"x_min":0,"x_max":0,"o":"m 364 1115 l 369 1115 l 525 981 l 557 1008 l 403 1165 l 331 1165 l 176 1008 l 208 981 l 364 1115 z m 647 0 l 726 0 l 406 915 l 329 915 l 10 0 l 85 0 l 189 307 l 544 307 l 647 0 z m 210 368 l 265 533 b 364 847 301 640 333 738 l 369 847 b 469 533 401 738 433 640 l 525 368 l 210 368 z "},"Ä":{"ha":736,"x_min":0,"x_max":0,"o":"m 229 1004 b 283 1058 260 1004 283 1025 b 229 1113 283 1090 260 1113 b 175 1058 199 1113 175 1090 b 229 1004 175 1025 199 1004 z m 504 1004 b 558 1058 535 1004 558 1025 b 504 1113 558 1090 535 1113 b 450 1058 474 1113 450 1090 b 504 1004 450 1025 474 1004 z m 647 0 l 726 0 l 406 915 l 329 915 l 10 0 l 85 0 l 189 307 l 544 307 l 647 0 z m 210 368 l 265 533 b 364 847 301 640 333 738 l 369 847 b 469 533 401 738 433 640 l 525 368 l 210 368 z "},"Ạ":{"ha":736,"x_min":0,"x_max":0,"o":"m 726 0 l 406 915 l 329 915 l 10 0 l 85 0 l 189 307 l 544 307 l 647 0 l 726 0 z m 210 368 l 265 533 b 364 847 301 640 333 738 l 369 847 b 469 533 401 738 433 640 l 525 368 l 210 368 z m 367 -154 b 310 -212 335 -154 310 -179 b 367 -274 310 -249 335 -274 b 424 -212 399 -274 424 -249 b 367 -154 424 -179 399 -154 z "},"À":{"ha":736,"x_min":0,"x_max":0,"o":"m 426 1015 l 250 1188 l 204 1136 l 394 979 l 426 1015 z m 647 0 l 726 0 l 406 915 l 329 915 l 10 0 l 85 0 l 189 307 l 544 307 l 647 0 z m 210 368 l 265 533 b 364 847 301 640 333 738 l 369 847 b 469 533 401 738 433 640 l 525 368 l 210 368 z "},"Ā":{"ha":736,"x_min":0,"x_max":0,"o":"m 542 1086 l 192 1086 l 192 1031 l 542 1031 l 542 1086 z m 647 0 l 726 0 l 406 915 l 329 915 l 10 0 l 85 0 l 189 307 l 544 307 l 647 0 z m 210 368 l 265 533 b 364 847 301 640 333 738 l 369 847 b 469 533 401 738 433 640 l 525 368 l 210 368 z "},"Å":{"ha":736,"x_min":0,"x_max":0,"o":"m 367 971 b 490 1092 435 971 490 1019 b 367 1213 490 1165 435 1213 b 243 1092 296 1213 243 1165 b 367 971 243 1019 296 971 z m 367 1174 b 443 1092 407 1174 443 1143 b 367 1010 443 1039 407 1010 b 288 1092 324 1010 288 1039 b 367 1174 288 1143 324 1174 z m 647 0 l 726 0 l 406 915 l 329 915 l 10 0 l 85 0 l 189 307 l 544 307 l 647 0 z m 210 368 l 265 533 b 364 847 301 640 333 738 l 369 847 b 469 533 401 738 433 640 l 525 368 l 210 368 z "},"Ã":{"ha":736,"x_min":0,"x_max":0,"o":"m 261 1103 b 474 996 336 1103 367 996 b 599 1153 550 996 594 1063 l 547 1156 b 472 1053 539 1092 513 1053 b 260 1161 397 1053 367 1161 b 135 1004 183 1161 139 1094 l 186 1000 b 261 1103 192 1064 221 1103 z m 647 0 l 726 0 l 406 915 l 329 915 l 10 0 l 85 0 l 189 307 l 544 307 l 647 0 z m 210 368 l 265 533 b 364 847 301 640 333 738 l 369 847 b 469 533 401 738 433 640 l 525 368 l 210 368 z "},"Æ":{"ha":1128,"x_min":0,"x_max":0,"o":"m 642 63 l 642 453 l 979 453 l 979 517 l 642 517 l 642 851 l 1047 851 l 1047 915 l 526 915 l 26 0 l 104 0 l 264 294 l 568 294 l 568 0 l 1061 0 l 1061 63 l 642 63 z m 297 356 l 394 535 l 563 853 l 568 853 l 568 356 l 297 356 z "},"B":{"ha":806,"x_min":0,"x_max":0,"o":"m 133 0 l 403 0 b 744 267 610 0 744 90 b 549 488 744 393 665 467 l 549 493 b 689 692 640 521 689 597 b 385 915 689 846 569 915 l 133 915 l 133 0 z m 207 514 l 207 854 l 368 854 b 617 685 531 854 617 808 b 361 514 617 579 542 514 l 207 514 z m 207 61 l 207 456 l 386 456 b 672 267 568 456 672 394 b 386 61 672 125 564 61 l 207 61 z "},"Ḇ":{"ha":806,"x_min":0,"x_max":0,"o":"m 133 0 l 403 0 b 744 267 610 0 744 90 b 549 488 744 393 665 467 l 549 493 b 689 692 640 521 689 597 b 385 915 689 846 569 915 l 133 915 l 133 0 z m 207 514 l 207 854 l 368 854 b 617 685 531 854 617 808 b 361 514 617 579 542 514 l 207 514 z m 207 61 l 207 456 l 386 456 b 672 267 568 456 672 394 b 386 61 672 125 564 61 l 207 61 z m 238 -225 l 585 -225 l 585 -169 l 238 -169 l 238 -225 z "},"C":{"ha":786,"x_min":0,"x_max":0,"o":"m 461 -17 b 735 114 581 -17 664 32 l 692 161 b 465 50 628 88 558 50 b 153 460 272 50 153 210 b 469 865 153 708 275 865 b 667 772 551 865 618 828 l 710 821 b 469 931 660 878 576 931 b 75 458 236 931 75 750 b 461 -17 75 167 235 -17 z "},"Č":{"ha":786,"x_min":0,"x_max":0,"o":"m 413 985 l 485 985 l 639 1142 l 607 1169 l 451 1035 l 446 1035 l 290 1169 l 258 1142 l 413 985 z m 461 -17 b 735 114 581 -17 664 32 l 692 161 b 465 50 628 88 558 50 b 153 460 272 50 153 210 b 469 865 153 708 275 865 b 667 772 551 865 618 828 l 710 821 b 469 931 660 878 576 931 b 75 458 236 931 75 750 b 461 -17 75 167 235 -17 z "},"Ç":{"ha":786,"x_min":0,"x_max":0,"o":"m 461 -17 b 735 114 581 -17 664 32 l 692 161 b 465 50 628 88 558 50 b 153 460 272 50 153 210 b 469 865 153 708 275 865 b 667 772 551 865 618 828 l 710 821 b 469 931 660 878 576 931 b 75 458 236 931 75 750 b 461 -17 75 167 235 -17 z "},"D":{"ha":842,"x_min":0,"x_max":0,"o":"m 133 0 l 350 0 b 767 460 631 0 767 181 b 347 915 767 740 631 915 l 133 915 l 133 0 z m 207 63 l 207 853 l 342 853 b 690 460 582 853 690 697 b 342 63 690 224 582 63 l 207 63 z "},"Ð":{"ha":871,"x_min":0,"x_max":0,"o":"m 376 915 l 163 915 l 163 508 l 50 504 l 50 458 l 163 458 l 163 0 l 379 0 b 796 460 660 0 796 181 b 376 915 796 740 660 915 z m 371 63 l 236 63 l 236 458 l 458 458 l 458 508 l 236 508 l 236 853 l 371 853 b 719 460 611 853 719 697 b 371 63 719 224 611 63 z "},"Ḍ":{"ha":842,"x_min":0,"x_max":0,"o":"m 133 0 l 350 0 b 767 460 631 0 767 181 b 347 915 767 740 631 915 l 133 915 l 133 0 z m 207 63 l 207 853 l 342 853 b 690 460 582 853 690 697 b 342 63 690 224 582 63 l 207 63 z m 418 -274 b 475 -212 450 -274 475 -249 b 418 -154 475 -179 450 -154 b 361 -212 386 -154 361 -179 b 418 -274 361 -249 386 -274 z "},"Ḏ":{"ha":842,"x_min":0,"x_max":0,"o":"m 133 0 l 350 0 b 767 460 631 0 767 181 b 347 915 767 740 631 915 l 133 915 l 133 0 z m 207 63 l 207 853 l 342 853 b 690 460 582 853 690 697 b 342 63 690 224 582 63 l 207 63 z m 244 -225 l 592 -225 l 592 -169 l 244 -169 l 244 -225 z "},"E":{"ha":718,"x_min":0,"x_max":0,"o":"m 133 0 l 653 0 l 653 63 l 207 63 l 207 453 l 569 453 l 569 517 l 207 517 l 207 851 l 639 851 l 639 915 l 133 915 l 133 0 z "},"É":{"ha":718,"x_min":0,"x_max":0,"o":"m 365 979 l 556 1136 l 510 1188 l 333 1015 l 365 979 z m 133 0 l 653 0 l 653 63 l 207 63 l 207 453 l 569 453 l 569 517 l 207 517 l 207 851 l 639 851 l 639 915 l 133 915 l 133 0 z "},"Ĕ":{"ha":718,"x_min":0,"x_max":0,"o":"m 393 985 b 585 1158 517 985 574 1074 l 535 1167 b 393 1036 524 1097 481 1036 b 251 1167 306 1036 263 1097 l 201 1158 b 393 985 213 1074 269 985 z m 133 0 l 653 0 l 653 63 l 207 63 l 207 453 l 569 453 l 569 517 l 207 517 l 207 851 l 639 851 l 639 915 l 133 915 l 133 0 z "},"Ê":{"ha":718,"x_min":0,"x_max":0,"o":"m 235 981 l 390 1115 l 396 1115 l 551 981 l 583 1008 l 429 1165 l 357 1165 l 203 1008 l 235 981 z m 133 0 l 653 0 l 653 63 l 207 63 l 207 453 l 569 453 l 569 517 l 207 517 l 207 851 l 639 851 l 639 915 l 133 915 l 133 0 z "},"Ë":{"ha":718,"x_min":0,"x_max":0,"o":"m 256 1004 b 310 1058 286 1004 310 1025 b 256 1113 310 1090 286 1113 b 201 1058 225 1113 201 1090 b 256 1004 201 1025 225 1004 z m 531 1004 b 585 1058 561 1004 585 1025 b 531 1113 585 1090 561 1113 b 476 1058 500 1113 476 1090 b 531 1004 476 1025 500 1004 z m 133 0 l 653 0 l 653 63 l 207 63 l 207 453 l 569 453 l 569 517 l 207 517 l 207 851 l 639 851 l 639 915 l 133 915 l 133 0 z "},"Ẹ":{"ha":718,"x_min":0,"x_max":0,"o":"m 133 0 l 653 0 l 653 63 l 207 63 l 207 453 l 569 453 l 569 517 l 207 517 l 207 851 l 639 851 l 639 915 l 133 915 l 133 0 z m 403 -274 b 460 -212 435 -274 460 -249 b 403 -154 460 -179 435 -154 b 346 -212 371 -154 346 -179 b 403 -274 346 -249 371 -274 z "},"È":{"ha":718,"x_min":0,"x_max":0,"o":"m 421 979 l 453 1015 l 276 1188 l 231 1136 l 421 979 z m 133 0 l 653 0 l 653 63 l 207 63 l 207 453 l 569 453 l 569 517 l 207 517 l 207 851 l 639 851 l 639 915 l 133 915 l 133 0 z "},"Ē":{"ha":718,"x_min":0,"x_max":0,"o":"m 218 1031 l 568 1031 l 568 1086 l 218 1086 l 218 1031 z m 133 0 l 653 0 l 653 63 l 207 63 l 207 453 l 569 453 l 569 517 l 207 517 l 207 851 l 639 851 l 639 915 l 133 915 l 133 0 z "},"Ę":{"ha":718,"x_min":0,"x_max":0,"o":"m 576 -286 b 671 -253 608 -286 649 -271 l 647 -211 b 588 -231 628 -224 611 -231 b 518 -160 553 -231 518 -207 b 649 0 518 -79 586 -12 l 653 0 l 653 63 l 207 63 l 207 453 l 569 453 l 569 517 l 207 517 l 207 851 l 639 851 l 639 915 l 133 915 l 133 0 l 558 0 b 457 -171 504 -35 457 -99 b 576 -286 457 -247 511 -286 z "},"F":{"ha":667,"x_min":0,"x_max":0,"o":"m 133 0 l 207 0 l 207 435 l 571 435 l 571 497 l 207 497 l 207 851 l 638 851 l 638 915 l 133 915 l 133 0 z "},"G":{"ha":843,"x_min":0,"x_max":0,"o":"m 472 -17 b 744 88 593 -17 688 26 l 744 454 l 461 454 l 461 392 l 675 392 l 675 115 b 478 50 632 74 557 50 b 153 460 272 50 153 210 b 485 865 153 708 279 865 b 693 772 582 865 646 824 l 735 821 b 483 931 685 874 607 931 b 75 458 242 931 75 750 b 472 -17 75 167 236 -17 z "},"Ǧ":{"ha":843,"x_min":0,"x_max":0,"o":"m 446 985 l 518 985 l 672 1142 l 640 1169 l 485 1035 l 479 1035 l 324 1169 l 292 1142 l 446 985 z m 472 -17 b 744 88 593 -17 688 26 l 744 454 l 461 454 l 461 392 l 675 392 l 675 115 b 478 50 632 74 557 50 b 153 460 272 50 153 210 b 485 865 153 708 279 865 b 693 772 582 865 646 824 l 735 821 b 483 931 685 874 607 931 b 75 458 242 931 75 750 b 472 -17 75 167 236 -17 z "},"Ġ":{"ha":843,"x_min":0,"x_max":0,"o":"m 482 1000 b 542 1060 515 1000 542 1024 b 482 1118 542 1094 515 1118 b 422 1060 449 1118 422 1094 b 482 1000 422 1024 449 1000 z m 472 -17 b 744 88 593 -17 688 26 l 744 454 l 461 454 l 461 392 l 675 392 l 675 115 b 478 50 632 74 557 50 b 153 460 272 50 153 210 b 485 865 153 708 279 865 b 693 772 582 865 646 824 l 735 821 b 483 931 685 874 607 931 b 75 458 242 931 75 750 b 472 -17 75 167 236 -17 z "},"Ḡ":{"ha":843,"x_min":0,"x_max":0,"o":"m 307 1031 l 657 1031 l 657 1086 l 307 1086 l 307 1031 z m 472 -17 b 744 88 593 -17 688 26 l 744 454 l 461 454 l 461 392 l 675 392 l 675 115 b 478 50 632 74 557 50 b 153 460 272 50 153 210 b 485 865 153 708 279 865 b 693 772 582 865 646 824 l 735 821 b 483 931 685 874 607 931 b 75 458 242 931 75 750 b 472 -17 75 167 236 -17 z "},"H":{"ha":890,"x_min":0,"x_max":0,"o":"m 133 0 l 207 0 l 207 453 l 683 453 l 683 0 l 757 0 l 757 915 l 683 915 l 683 517 l 207 517 l 207 915 l 133 915 l 133 0 z "},"Ħ":{"ha":936,"x_min":0,"x_max":0,"o":"m 888 736 l 785 736 l 785 915 l 711 915 l 711 736 l 235 736 l 235 915 l 161 915 l 161 736 l 50 731 l 50 686 l 161 686 l 161 0 l 235 0 l 235 453 l 711 453 l 711 0 l 785 0 l 785 686 l 888 686 l 888 736 z m 711 517 l 235 517 l 235 686 l 711 686 l 711 517 z "},"Ḫ":{"ha":890,"x_min":0,"x_max":0,"o":"m 133 0 l 207 0 l 207 453 l 683 453 l 683 0 l 757 0 l 757 915 l 683 915 l 683 517 l 207 517 l 207 915 l 133 915 l 133 0 z m 444 -321 b 653 -115 589 -321 643 -207 l 603 -107 b 444 -268 592 -183 543 -268 b 286 -107 346 -268 297 -183 l 236 -115 b 444 -321 246 -207 301 -321 z "},"Ḥ":{"ha":890,"x_min":0,"x_max":0,"o":"m 133 0 l 207 0 l 207 453 l 683 453 l 683 0 l 757 0 l 757 915 l 683 915 l 683 517 l 207 517 l 207 915 l 133 915 l 133 0 z m 444 -274 b 501 -212 476 -274 501 -249 b 444 -154 501 -179 476 -154 b 388 -212 413 -154 388 -179 b 444 -274 388 -249 413 -274 z "},"I":{"ha":340,"x_min":0,"x_max":0,"o":"m 133 0 l 207 0 l 207 915 l 133 915 l 133 0 z "},"Í":{"ha":340,"x_min":0,"x_max":0,"o":"m 142 979 l 332 1136 l 286 1188 l 110 1015 l 142 979 z m 133 0 l 207 0 l 207 915 l 133 915 l 133 0 z "},"Î":{"ha":340,"x_min":0,"x_max":0,"o":"m 11 981 l 167 1115 l 172 1115 l 328 981 l 360 1008 l 206 1165 l 133 1165 l -21 1008 l 11 981 z m 133 0 l 207 0 l 207 915 l 133 915 l 133 0 z "},"Ï":{"ha":340,"x_min":0,"x_max":0,"o":"m 32 1004 b 86 1058 63 1004 86 1025 b 32 1113 86 1090 63 1113 b -22 1058 1 1113 -22 1090 b 32 1004 -22 1025 1 1004 z m 307 1004 b 361 1058 338 1004 361 1025 b 307 1113 361 1090 338 1113 b 253 1058 276 1113 253 1090 b 307 1004 253 1025 276 1004 z m 133 0 l 207 0 l 207 915 l 133 915 l 133 0 z "},"Ì":{"ha":340,"x_min":0,"x_max":0,"o":"m 197 979 l 229 1015 l 53 1188 l 7 1136 l 197 979 z m 133 0 l 207 0 l 207 915 l 133 915 l 133 0 z "},"Ī":{"ha":340,"x_min":0,"x_max":0,"o":"m -6 1031 l 344 1031 l 344 1086 l -6 1086 l -6 1031 z m 133 0 l 207 0 l 207 915 l 133 915 l 133 0 z "},"J":{"ha":647,"x_min":0,"x_max":0,"o":"m 285 -17 b 517 253 453 -17 517 103 l 517 915 l 443 915 l 443 260 b 282 50 443 114 390 50 b 108 157 207 50 154 79 l 54 119 b 285 -17 101 32 179 -17 z "},"K":{"ha":781,"x_min":0,"x_max":0,"o":"m 133 0 l 207 0 l 207 310 l 388 517 l 685 0 l 768 0 l 436 574 l 728 915 l 640 915 l 210 415 l 207 415 l 207 915 l 133 915 l 133 0 z "},"Ḳ":{"ha":781,"x_min":0,"x_max":0,"o":"m 133 0 l 207 0 l 207 310 l 388 517 l 685 0 l 768 0 l 436 574 l 728 915 l 640 915 l 210 415 l 207 415 l 207 915 l 133 915 l 133 0 z m 453 -274 b 510 -212 485 -274 510 -249 b 453 -154 510 -179 485 -154 b 396 -212 421 -154 396 -179 b 453 -274 396 -249 421 -274 z "},"Ḵ":{"ha":781,"x_min":0,"x_max":0,"o":"m 133 0 l 207 0 l 207 310 l 388 517 l 685 0 l 768 0 l 436 574 l 728 915 l 640 915 l 210 415 l 207 415 l 207 915 l 133 915 l 133 0 z m 279 -225 l 626 -225 l 626 -169 l 279 -169 l 279 -225 z "},"L":{"ha":654,"x_min":0,"x_max":0,"o":"m 133 0 l 624 0 l 624 63 l 207 63 l 207 915 l 133 915 l 133 0 z "},"Ł":{"ha":656,"x_min":0,"x_max":0,"o":"m 214 63 l 214 388 l 497 535 l 468 585 l 214 450 l 214 915 l 140 915 l 140 417 l 3 344 l 32 294 l 140 353 l 140 0 l 631 0 l 631 63 l 214 63 z "},"M":{"ha":986,"x_min":0,"x_max":0,"o":"m 133 0 l 200 0 l 200 583 b 192 835 200 658 196 757 l 197 835 l 269 629 l 463 99 l 522 99 l 715 629 l 786 835 l 792 835 b 782 583 788 757 782 658 l 782 0 l 853 0 l 853 915 l 753 915 l 565 388 b 497 186 542 321 521 253 l 492 186 l 421 388 l 233 915 l 133 915 l 133 0 z "},"N":{"ha":886,"x_min":0,"x_max":0,"o":"m 133 0 l 203 0 l 203 551 b 193 815 203 642 197 728 l 199 815 l 301 632 l 676 0 l 753 0 l 753 915 l 683 915 l 683 371 b 693 99 683 281 689 189 l 688 99 l 585 283 l 210 915 l 133 915 l 133 0 z "},"Ñ":{"ha":886,"x_min":0,"x_max":0,"o":"m 557 996 b 682 1153 633 996 678 1063 l 631 1156 b 556 1053 622 1092 596 1053 b 343 1161 481 1053 450 1161 b 218 1004 267 1161 222 1094 l 269 1000 b 344 1103 275 1064 304 1103 b 557 996 419 1103 450 996 z m 133 0 l 203 0 l 203 551 b 193 815 203 642 197 728 l 199 815 l 301 632 l 676 0 l 753 0 l 753 915 l 683 915 l 683 371 b 693 99 683 281 689 189 l 688 99 l 585 283 l 210 915 l 133 915 l 133 0 z "},"O":{"ha":910,"x_min":0,"x_max":0,"o":"m 454 -17 b 833 460 676 -17 833 169 b 454 931 833 750 676 931 b 75 460 233 931 75 750 b 454 -17 75 169 233 -17 z m 454 50 b 153 460 274 50 153 211 b 454 865 153 710 274 865 b 757 460 636 865 757 710 b 454 50 757 211 636 50 z "},"Ó":{"ha":910,"x_min":0,"x_max":0,"o":"m 426 979 l 617 1136 l 571 1188 l 394 1015 l 426 979 z m 454 -17 b 833 460 676 -17 833 169 b 454 931 833 750 676 931 b 75 460 233 931 75 750 b 454 -17 75 169 233 -17 z m 454 50 b 153 460 274 50 153 211 b 454 865 153 710 274 865 b 757 460 636 865 757 710 b 454 50 757 211 636 50 z "},"Ŏ":{"ha":910,"x_min":0,"x_max":0,"o":"m 454 985 b 646 1158 578 985 635 1074 l 596 1167 b 454 1036 585 1097 542 1036 b 313 1167 367 1036 324 1097 l 263 1158 b 454 985 274 1074 331 985 z m 454 -17 b 833 460 676 -17 833 169 b 454 931 833 750 676 931 b 75 460 233 931 75 750 b 454 -17 75 169 233 -17 z m 454 50 b 153 460 274 50 153 211 b 454 865 153 710 274 865 b 757 460 636 865 757 710 b 454 50 757 211 636 50 z "},"Ô":{"ha":910,"x_min":0,"x_max":0,"o":"m 296 981 l 451 1115 l 457 1115 l 613 981 l 644 1008 l 490 1165 l 418 1165 l 264 1008 l 296 981 z m 454 -17 b 833 460 676 -17 833 169 b 454 931 833 750 676 931 b 75 460 233 931 75 750 b 454 -17 75 169 233 -17 z m 454 50 b 153 460 274 50 153 211 b 454 865 153 710 274 865 b 757 460 636 865 757 710 b 454 50 757 211 636 50 z "},"Ö":{"ha":910,"x_min":0,"x_max":0,"o":"m 317 1004 b 371 1058 347 1004 371 1025 b 317 1113 371 1090 347 1113 b 263 1058 286 1113 263 1090 b 317 1004 263 1025 286 1004 z m 592 1004 b 646 1058 622 1004 646 1025 b 592 1113 646 1090 622 1113 b 538 1058 561 1113 538 1090 b 592 1004 538 1025 561 1004 z m 454 -17 b 833 460 676 -17 833 169 b 454 931 833 750 676 931 b 75 460 233 931 75 750 b 454 -17 75 169 233 -17 z m 454 50 b 153 460 274 50 153 211 b 454 865 153 710 274 865 b 757 460 636 865 757 710 b 454 50 757 211 636 50 z "},"Ọ":{"ha":910,"x_min":0,"x_max":0,"o":"m 454 -17 b 833 460 676 -17 833 169 b 454 931 833 750 676 931 b 75 460 233 931 75 750 b 454 -17 75 169 233 -17 z m 454 50 b 153 460 274 50 153 211 b 454 865 153 710 274 865 b 757 460 636 865 757 710 b 454 50 757 211 636 50 z m 454 -274 b 511 -212 486 -274 511 -249 b 454 -154 511 -179 486 -154 b 397 -212 422 -154 397 -179 b 454 -274 397 -249 422 -274 z "},"Ò":{"ha":910,"x_min":0,"x_max":0,"o":"m 482 979 l 514 1015 l 338 1188 l 292 1136 l 482 979 z m 454 -17 b 833 460 676 -17 833 169 b 454 931 833 750 676 931 b 75 460 233 931 75 750 b 454 -17 75 169 233 -17 z m 454 50 b 153 460 274 50 153 211 b 454 865 153 710 274 865 b 757 460 636 865 757 710 b 454 50 757 211 636 50 z "},"Ō":{"ha":910,"x_min":0,"x_max":0,"o":"m 279 1031 l 629 1031 l 629 1086 l 279 1086 l 279 1031 z m 454 -17 b 833 460 676 -17 833 169 b 454 931 833 750 676 931 b 75 460 233 931 75 750 b 454 -17 75 169 233 -17 z m 454 50 b 153 460 274 50 153 211 b 454 865 153 710 274 865 b 757 460 636 865 757 710 b 454 50 757 211 636 50 z "},"Ø":{"ha":910,"x_min":0,"x_max":0,"o":"m 740 792 l 833 915 l 789 947 l 704 833 b 458 931 639 896 556 931 b 79 460 238 931 79 750 b 174 129 79 324 114 211 l 76 0 l 121 -33 l 210 86 b 458 -17 275 19 361 -17 b 838 460 681 -17 838 169 b 740 792 838 597 801 711 z m 157 460 b 458 865 157 710 278 865 b 661 776 540 865 610 833 l 221 192 b 157 460 179 260 157 351 z m 458 50 b 254 144 376 50 306 83 l 694 731 b 761 460 738 663 761 571 b 458 50 761 211 640 50 z "},"Õ":{"ha":910,"x_min":0,"x_max":0,"o":"m 561 996 b 686 1153 638 996 682 1063 l 635 1156 b 560 1053 626 1092 600 1053 b 347 1161 485 1053 454 1161 b 222 1004 271 1161 226 1094 l 274 1000 b 349 1103 279 1064 308 1103 b 561 996 424 1103 454 996 z m 454 -17 b 833 460 676 -17 833 169 b 454 931 833 750 676 931 b 75 460 233 931 75 750 b 454 -17 75 169 233 -17 z m 454 50 b 153 460 274 50 153 211 b 454 865 153 710 274 865 b 757 460 636 865 757 710 b 454 50 757 211 636 50 z "},"Œ":{"ha":1161,"x_min":0,"x_max":0,"o":"m 510 0 l 1096 0 l 1096 63 l 676 63 l 676 453 l 1013 453 l 1013 517 l 676 517 l 676 851 l 1082 851 l 1082 915 l 513 915 b 75 460 225 915 75 740 b 510 0 75 181 225 0 z m 519 63 b 153 460 269 63 153 222 b 519 853 153 697 269 853 l 603 853 l 603 63 l 519 63 z "},"P":{"ha":767,"x_min":0,"x_max":0,"o":"m 133 0 l 207 0 l 207 388 l 375 388 b 703 657 578 388 703 475 b 369 915 703 847 576 915 l 133 915 l 133 0 z m 207 449 l 207 853 l 353 853 b 628 657 538 853 628 806 b 358 449 628 510 540 449 l 207 449 z "},"Þ":{"ha":788,"x_min":0,"x_max":0,"o":"m 133 0 l 207 0 l 207 226 l 389 226 b 717 496 592 226 717 314 b 389 753 717 686 593 753 l 207 753 l 207 915 l 133 915 l 133 0 z m 207 288 l 207 692 l 372 692 b 642 496 554 692 642 644 b 372 288 642 349 554 288 l 207 288 z "},"Q":{"ha":910,"x_min":0,"x_max":0,"o":"m 825 -140 b 732 -153 801 -147 772 -153 b 496 -14 622 -153 539 -104 b 833 460 696 7 833 188 b 454 931 833 750 676 931 b 75 460 233 931 75 750 b 415 -15 75 186 215 6 b 725 -218 463 -132 568 -218 b 840 -201 772 -218 817 -210 l 825 -140 z m 153 460 b 454 865 153 710 274 865 b 757 460 636 865 757 710 b 454 46 757 210 636 46 b 153 460 274 46 153 210 z "},"R":{"ha":761,"x_min":0,"x_max":0,"o":"m 724 0 l 475 419 b 704 671 615 440 704 525 b 399 915 704 847 582 915 l 133 915 l 133 0 l 207 0 l 207 414 l 396 414 l 638 0 l 724 0 z m 207 475 l 207 853 l 382 853 b 629 671 540 853 629 804 b 382 475 629 538 540 475 l 207 475 z "},"S":{"ha":726,"x_min":0,"x_max":0,"o":"m 375 -17 b 671 232 554 -17 671 92 b 479 475 671 371 582 429 l 342 535 b 185 707 274 565 185 604 b 381 865 185 803 264 865 b 597 772 471 865 543 829 l 639 821 b 381 931 581 882 490 931 b 111 703 226 931 111 836 b 296 474 111 567 215 510 l 433 413 b 596 226 524 372 596 338 b 375 50 596 122 511 50 b 110 171 271 50 176 97 l 64 121 b 375 -17 138 39 242 -17 z "},"Ś":{"ha":726,"x_min":0,"x_max":0,"o":"m 350 979 l 540 1136 l 494 1188 l 318 1015 l 350 979 z m 375 -17 b 671 232 554 -17 671 92 b 479 475 671 371 582 429 l 342 535 b 185 707 274 565 185 604 b 381 865 185 803 264 865 b 597 772 471 865 543 829 l 639 821 b 381 931 581 882 490 931 b 111 703 226 931 111 836 b 296 474 111 567 215 510 l 433 413 b 596 226 524 372 596 338 b 375 50 596 122 511 50 b 110 171 271 50 176 97 l 64 121 b 375 -17 138 39 242 -17 z "},"Š":{"ha":726,"x_min":0,"x_max":0,"o":"m 342 985 l 414 985 l 568 1142 l 536 1169 l 381 1035 l 375 1035 l 219 1169 l 188 1142 l 342 985 z m 375 -17 b 671 232 554 -17 671 92 b 479 475 671 371 582 429 l 342 535 b 185 707 274 565 185 604 b 381 865 185 803 264 865 b 597 772 471 865 543 829 l 639 821 b 381 931 581 882 490 931 b 111 703 226 931 111 836 b 296 474 111 567 215 510 l 433 413 b 596 226 524 372 596 338 b 375 50 596 122 511 50 b 110 171 271 50 176 97 l 64 121 b 375 -17 138 39 242 -17 z "},"Ṣ":{"ha":726,"x_min":0,"x_max":0,"o":"m 375 -17 b 671 232 554 -17 671 92 b 479 475 671 371 582 429 l 342 535 b 185 707 274 565 185 604 b 381 865 185 803 264 865 b 597 772 471 865 543 829 l 639 821 b 381 931 581 882 490 931 b 111 703 226 931 111 836 b 296 474 111 567 215 510 l 433 413 b 596 226 524 372 596 338 b 375 50 596 122 511 50 b 110 171 271 50 176 97 l 64 121 b 375 -17 138 39 242 -17 z m 375 -274 b 432 -212 407 -274 432 -249 b 375 -154 432 -179 407 -154 b 318 -212 343 -154 318 -179 b 375 -274 318 -249 343 -274 z "},"Ə":{"ha":903,"x_min":0,"x_max":0,"o":"m 454 931 b 181 826 338 931 242 886 l 218 776 b 451 869 275 832 360 869 b 754 471 647 869 751 724 l 86 471 l 86 451 b 449 -17 86 175 218 -17 b 828 460 679 -17 828 158 b 454 931 828 761 690 931 z m 449 46 b 160 413 282 46 167 188 l 753 413 b 449 46 740 181 628 46 z "},"T":{"ha":732,"x_min":0,"x_max":0,"o":"m 329 0 l 403 0 l 403 851 l 692 851 l 692 915 l 40 915 l 40 851 l 329 851 l 329 0 z "},"Ṭ":{"ha":732,"x_min":0,"x_max":0,"o":"m 329 0 l 403 0 l 403 851 l 692 851 l 692 915 l 40 915 l 40 851 l 329 851 l 329 0 z m 365 -274 b 422 -212 397 -274 422 -249 b 365 -154 422 -179 397 -154 b 308 -212 333 -154 308 -179 b 365 -274 308 -249 333 -274 z "},"Ṯ":{"ha":732,"x_min":0,"x_max":0,"o":"m 329 0 l 403 0 l 403 851 l 692 851 l 692 915 l 40 915 l 40 851 l 329 851 l 329 0 z m 192 -225 l 539 -225 l 539 -169 l 192 -169 l 192 -225 z "},"U":{"ha":883,"x_min":0,"x_max":0,"o":"m 442 -17 b 754 356 604 -17 754 68 l 754 915 l 683 915 l 683 361 b 442 50 683 122 571 50 b 204 361 314 50 204 122 l 204 915 l 131 915 l 131 356 b 442 -17 131 68 278 -17 z "},"Ú":{"ha":883,"x_min":0,"x_max":0,"o":"m 413 979 l 603 1136 l 557 1188 l 381 1015 l 413 979 z m 442 -17 b 754 356 604 -17 754 68 l 754 915 l 683 915 l 683 361 b 442 50 683 122 571 50 b 204 361 314 50 204 122 l 204 915 l 131 915 l 131 356 b 442 -17 131 68 278 -17 z "},"Û":{"ha":883,"x_min":0,"x_max":0,"o":"m 282 981 l 438 1115 l 443 1115 l 599 981 l 631 1008 l 476 1165 l 404 1165 l 250 1008 l 282 981 z m 442 -17 b 754 356 604 -17 754 68 l 754 915 l 683 915 l 683 361 b 442 50 683 122 571 50 b 204 361 314 50 204 122 l 204 915 l 131 915 l 131 356 b 442 -17 131 68 278 -17 z "},"Ü":{"ha":883,"x_min":0,"x_max":0,"o":"m 303 1004 b 357 1058 333 1004 357 1025 b 303 1113 357 1090 333 1113 b 249 1058 272 1113 249 1090 b 303 1004 249 1025 272 1004 z m 578 1004 b 632 1058 608 1004 632 1025 b 578 1113 632 1090 608 1113 b 524 1058 547 1113 524 1090 b 578 1004 524 1025 547 1004 z m 442 -17 b 754 356 604 -17 754 68 l 754 915 l 683 915 l 683 361 b 442 50 683 122 571 50 b 204 361 314 50 204 122 l 204 915 l 131 915 l 131 356 b 442 -17 131 68 278 -17 z "},"Ù":{"ha":883,"x_min":0,"x_max":0,"o":"m 468 979 l 500 1015 l 324 1188 l 278 1136 l 468 979 z m 442 -17 b 754 356 604 -17 754 68 l 754 915 l 683 915 l 683 361 b 442 50 683 122 571 50 b 204 361 314 50 204 122 l 204 915 l 131 915 l 131 356 b 442 -17 131 68 278 -17 z "},"Ū":{"ha":883,"x_min":0,"x_max":0,"o":"m 265 1031 l 615 1031 l 615 1086 l 265 1086 l 265 1031 z m 442 -17 b 754 356 604 -17 754 68 l 754 915 l 683 915 l 683 361 b 442 50 683 122 571 50 b 204 361 314 50 204 122 l 204 915 l 131 915 l 131 356 b 442 -17 131 68 278 -17 z "},"V":{"ha":689,"x_min":0,"x_max":0,"o":"m 304 0 l 386 0 l 683 915 l 608 915 l 444 388 b 349 82 410 276 386 192 l 343 82 b 249 388 307 192 283 276 l 83 915 l 6 915 l 304 0 z "},"Ṿ":{"ha":689,"x_min":0,"x_max":0,"o":"m 304 0 l 386 0 l 683 915 l 608 915 l 444 388 b 349 82 410 276 386 192 l 343 82 b 249 388 307 192 283 276 l 83 915 l 6 915 l 304 0 z m 347 -274 b 404 -212 379 -274 404 -249 b 347 -154 404 -179 379 -154 b 290 -212 315 -154 290 -179 b 347 -274 290 -249 315 -274 z "},"W":{"ha":1074,"x_min":0,"x_max":0,"o":"m 243 0 l 325 0 l 485 614 b 535 819 500 685 518 749 l 540 819 b 588 614 556 749 571 685 l 749 0 l 832 0 l 1033 915 l 963 915 l 850 383 b 792 86 831 285 813 185 l 786 86 l 715 383 l 575 915 l 501 915 l 361 383 b 293 86 338 285 314 185 l 288 86 b 226 383 267 185 246 283 l 114 915 l 38 915 l 243 0 z "},"X":{"ha":678,"x_min":0,"x_max":0,"o":"m 24 0 l 100 0 l 254 275 l 331 419 l 336 419 b 419 275 368 364 394 319 l 574 0 l 654 0 l 382 469 l 636 915 l 560 915 l 414 651 b 347 525 390 610 374 576 l 342 525 b 268 651 313 576 293 610 l 122 915 l 42 915 l 296 474 l 24 0 z "},"Y":{"ha":628,"x_min":0,"x_max":0,"o":"m 278 0 l 351 0 l 351 368 l 625 915 l 550 915 l 415 633 b 317 436 386 567 351 503 l 311 436 b 217 633 278 503 247 567 l 81 915 l 3 915 l 278 368 l 278 0 z "},"Ý":{"ha":628,"x_min":0,"x_max":0,"o":"m 286 979 l 476 1136 l 431 1188 l 254 1015 l 286 979 z m 278 0 l 351 0 l 351 368 l 625 915 l 550 915 l 415 633 b 317 436 386 567 351 503 l 311 436 b 217 633 278 503 247 567 l 81 915 l 3 915 l 278 368 l 278 0 z "},"Ÿ":{"ha":628,"x_min":0,"x_max":0,"o":"m 176 1004 b 231 1058 207 1004 231 1025 b 176 1113 231 1090 207 1113 b 122 1058 146 1113 122 1090 b 176 1004 122 1025 146 1004 z m 451 1004 b 506 1058 482 1004 506 1025 b 451 1113 506 1090 482 1113 b 397 1058 421 1113 397 1090 b 451 1004 397 1025 421 1004 z m 278 0 l 351 0 l 351 368 l 625 915 l 550 915 l 415 633 b 317 436 386 567 351 503 l 311 436 b 217 633 278 503 247 567 l 81 915 l 3 915 l 278 368 l 278 0 z "},"Z":{"ha":749,"x_min":0,"x_max":0,"o":"m 68 0 l 683 0 l 683 63 l 160 63 l 678 872 l 678 915 l 114 915 l 114 851 l 586 851 l 68 43 l 68 0 z "},"Ž":{"ha":749,"x_min":0,"x_max":0,"o":"m 351 985 l 424 985 l 578 1142 l 546 1169 l 390 1035 l 385 1035 l 229 1169 l 197 1142 l 351 985 z m 68 0 l 683 0 l 683 63 l 160 63 l 678 872 l 678 915 l 114 915 l 114 851 l 586 851 l 68 43 l 68 0 z "},"Ẓ":{"ha":749,"x_min":0,"x_max":0,"o":"m 68 0 l 683 0 l 683 63 l 160 63 l 678 872 l 678 915 l 114 915 l 114 851 l 586 851 l 68 43 l 68 0 z m 392 -274 b 449 -212 424 -274 449 -249 b 392 -154 449 -179 424 -154 b 335 -212 360 -154 335 -179 b 392 -274 335 -249 360 -274 z "},"Ẕ":{"ha":749,"x_min":0,"x_max":0,"o":"m 68 0 l 683 0 l 683 63 l 160 63 l 678 872 l 678 915 l 114 915 l 114 851 l 586 851 l 68 43 l 68 0 z m 218 -225 l 565 -225 l 565 -169 l 218 -169 l 218 -225 z "},"a":{"ha":686,"x_min":0,"x_max":0,"o":"m 272 -17 b 507 86 360 -17 440 31 l 510 86 l 518 0 l 578 0 l 578 424 b 361 685 578 571 521 685 b 110 599 253 685 160 633 l 142 547 b 353 624 188 581 264 624 b 506 419 479 624 507 519 b 79 168 211 388 79 315 b 272 -17 79 43 165 -17 z m 288 44 b 151 172 213 44 151 79 b 506 368 151 275 242 336 l 506 147 b 288 44 426 81 363 44 z "},"á":{"ha":686,"x_min":0,"x_max":0,"o":"m 332 797 l 535 1007 l 482 1054 l 293 833 l 332 797 z m 272 -17 b 507 86 360 -17 440 31 l 510 86 l 518 0 l 578 0 l 578 424 b 361 685 578 571 521 685 b 110 599 253 685 160 633 l 142 547 b 353 624 188 581 264 624 b 506 419 479 624 507 519 b 79 168 211 388 79 315 b 272 -17 79 43 165 -17 z m 288 44 b 151 172 213 44 151 79 b 506 368 151 275 242 336 l 506 147 b 288 44 426 81 363 44 z "},"ă":{"ha":686,"x_min":0,"x_max":0,"o":"m 368 792 b 576 997 513 792 567 906 l 526 1006 b 368 844 515 929 467 844 b 210 1006 269 844 221 929 l 160 997 b 368 792 169 906 225 792 z m 272 -17 b 507 86 360 -17 440 31 l 510 86 l 518 0 l 578 0 l 578 424 b 361 685 578 571 521 685 b 110 599 253 685 160 633 l 142 547 b 353 624 188 581 264 624 b 506 419 479 624 507 519 b 79 168 211 388 79 315 b 272 -17 79 43 165 -17 z m 288 44 b 151 172 213 44 151 79 b 506 368 151 275 242 336 l 506 147 b 288 44 426 81 363 44 z "},"â":{"ha":686,"x_min":0,"x_max":0,"o":"m 207 794 l 365 965 l 371 965 l 529 794 l 564 825 l 403 1025 l 333 1025 l 172 825 l 207 794 z m 272 -17 b 507 86 360 -17 440 31 l 510 86 l 518 0 l 578 0 l 578 424 b 361 685 578 571 521 685 b 110 599 253 685 160 633 l 142 547 b 353 624 188 581 264 624 b 506 419 479 624 507 519 b 79 168 211 388 79 315 b 272 -17 79 43 165 -17 z m 288 44 b 151 172 213 44 151 79 b 506 368 151 275 242 336 l 506 147 b 288 44 426 81 363 44 z "},"ä":{"ha":686,"x_min":0,"x_max":0,"o":"m 243 828 b 297 882 274 828 297 851 b 243 936 297 913 274 936 b 189 882 211 936 189 913 b 243 828 189 851 211 828 z m 493 828 b 547 882 525 828 547 851 b 493 936 547 913 525 936 b 439 882 463 936 439 913 b 493 828 439 851 463 828 z m 272 -17 b 507 86 360 -17 440 31 l 510 86 l 518 0 l 578 0 l 578 424 b 361 685 578 571 521 685 b 110 599 253 685 160 633 l 142 547 b 353 624 188 581 264 624 b 506 419 479 624 507 519 b 79 168 211 388 79 315 b 272 -17 79 43 165 -17 z m 288 44 b 151 172 213 44 151 79 b 506 368 151 275 242 336 l 506 147 b 288 44 426 81 363 44 z "},"ạ":{"ha":686,"x_min":0,"x_max":0,"o":"m 272 -17 b 507 86 360 -17 440 31 l 510 86 l 518 0 l 578 0 l 578 424 b 361 685 578 571 521 685 b 110 599 253 685 160 633 l 142 547 b 353 624 188 581 264 624 b 506 419 479 624 507 519 b 79 168 211 388 79 315 b 272 -17 79 43 165 -17 z m 288 44 b 151 172 213 44 151 79 b 506 368 151 275 242 336 l 506 147 b 288 44 426 81 363 44 z m 340 -274 b 397 -212 372 -274 397 -249 b 340 -154 397 -179 372 -154 b 283 -212 308 -154 283 -179 b 340 -274 283 -249 308 -274 z "},"à":{"ha":686,"x_min":0,"x_max":0,"o":"m 404 797 l 443 833 l 254 1054 l 201 1007 l 404 797 z m 272 -17 b 507 86 360 -17 440 31 l 510 86 l 518 0 l 578 0 l 578 424 b 361 685 578 571 521 685 b 110 599 253 685 160 633 l 142 547 b 353 624 188 581 264 624 b 506 419 479 624 507 519 b 79 168 211 388 79 315 b 272 -17 79 43 165 -17 z m 288 44 b 151 172 213 44 151 79 b 506 368 151 275 242 336 l 506 147 b 288 44 426 81 363 44 z "},"ā":{"ha":686,"x_min":0,"x_max":0,"o":"m 194 840 l 542 840 l 542 896 l 194 896 l 194 840 z m 272 -17 b 507 86 360 -17 440 31 l 510 86 l 518 0 l 578 0 l 578 424 b 361 685 578 571 521 685 b 110 599 253 685 160 633 l 142 547 b 353 624 188 581 264 624 b 506 419 479 624 507 519 b 79 168 211 388 79 315 b 272 -17 79 43 165 -17 z m 288 44 b 151 172 213 44 151 79 b 506 368 151 275 242 336 l 506 147 b 288 44 426 81 363 44 z "},"å":{"ha":686,"x_min":0,"x_max":0,"o":"m 368 763 b 506 896 449 763 506 818 b 368 1029 506 974 449 1029 b 231 896 288 1029 231 974 b 368 763 231 818 288 763 z m 368 801 b 279 896 319 801 279 839 b 368 990 279 953 319 990 b 457 896 417 990 457 953 b 368 801 457 839 417 801 z m 272 -17 b 507 86 360 -17 440 31 l 510 86 l 518 0 l 578 0 l 578 424 b 361 685 578 571 521 685 b 110 599 253 685 160 633 l 142 547 b 353 624 188 581 264 624 b 506 419 479 624 507 519 b 79 168 211 388 79 315 b 272 -17 79 43 165 -17 z m 288 44 b 151 172 213 44 151 79 b 506 368 151 275 242 336 l 506 147 b 288 44 426 81 363 44 z "},"ã":{"ha":686,"x_min":0,"x_max":0,"o":"m 472 804 b 597 981 564 804 593 892 l 544 985 b 474 860 542 915 521 860 b 265 989 399 860 367 989 b 139 813 172 989 143 903 l 192 808 b 264 933 194 879 215 933 b 472 804 338 933 369 804 z m 272 -17 b 507 86 360 -17 440 31 l 510 86 l 518 0 l 578 0 l 578 424 b 361 685 578 571 521 685 b 110 599 253 685 160 633 l 142 547 b 353 624 188 581 264 624 b 506 419 479 624 507 519 b 79 168 211 388 79 315 b 272 -17 79 43 165 -17 z m 288 44 b 151 172 213 44 151 79 b 506 368 151 275 242 336 l 506 147 b 288 44 426 81 363 44 z "},"ɐ":{"ha":696,"x_min":0,"x_max":0,"o":"m 369 -17 b 607 71 471 -17 560 36 l 576 122 b 378 44 532 88 461 44 b 186 249 221 44 185 157 b 614 515 481 283 614 360 b 433 685 614 631 533 685 b 185 569 344 685 256 639 l 182 569 l 175 668 l 115 668 l 115 257 b 369 -17 115 104 181 -17 z m 186 301 l 186 504 b 418 625 271 590 346 625 b 542 508 485 625 542 593 b 186 301 542 400 451 335 z "},"æ":{"ha":1089,"x_min":0,"x_max":0,"o":"m 283 -17 b 564 119 368 -17 475 35 b 801 -17 613 50 683 -17 b 1010 50 899 -17 956 15 l 981 103 b 810 44 931 68 881 44 b 576 322 678 44 578 160 l 1033 322 b 1038 374 1036 339 1038 356 b 788 685 1038 569 946 685 b 557 524 690 685 606 622 b 363 685 533 621 469 685 b 121 599 263 685 171 633 l 153 547 b 356 624 199 581 275 624 b 508 419 483 624 511 519 b 89 167 224 388 89 315 b 283 -17 89 43 176 -17 z m 576 375 b 786 625 590 524 679 625 b 971 375 901 625 971 539 l 576 375 z m 299 44 b 161 172 224 44 161 79 b 508 368 161 275 257 336 l 508 331 b 538 168 510 271 519 207 b 299 44 465 89 368 44 z "},"b":{"ha":756,"x_min":0,"x_max":0,"o":"m 393 -17 b 688 344 550 -17 688 117 b 419 685 688 551 597 685 b 193 583 340 685 260 639 l 197 711 l 197 997 l 125 997 l 125 0 l 185 0 l 192 68 l 194 68 b 393 -17 257 17 331 -17 z m 388 46 b 197 129 338 46 267 68 l 197 517 b 407 624 272 586 343 624 b 613 344 556 624 613 506 b 388 46 613 165 518 46 z "},"ḇ":{"ha":756,"x_min":0,"x_max":0,"o":"m 393 -17 b 688 344 550 -17 688 117 b 419 685 688 551 597 685 b 193 583 340 685 260 639 l 197 711 l 197 997 l 125 997 l 125 0 l 185 0 l 192 68 l 194 68 b 393 -17 257 17 331 -17 z m 388 46 b 197 129 338 46 267 68 l 197 517 b 407 624 272 586 343 624 b 613 344 556 624 613 506 b 388 46 613 165 518 46 z m 213 -225 l 560 -225 l 560 -169 l 213 -169 l 213 -225 z "},"c":{"ha":625,"x_min":0,"x_max":0,"o":"m 375 -17 b 590 71 460 -17 532 19 l 554 121 b 379 46 510 79 450 46 b 144 333 239 46 144 161 b 381 624 144 504 247 624 b 535 554 444 624 492 594 l 575 604 b 379 685 529 646 469 685 b 71 333 215 685 71 557 b 375 -17 71 113 201 -17 z "},"č":{"ha":625,"x_min":0,"x_max":0,"o":"m 340 796 l 410 796 l 571 994 l 536 1026 l 378 856 l 372 856 l 214 1026 l 179 994 l 340 796 z m 375 -17 b 590 71 460 -17 532 19 l 554 121 b 379 46 510 79 450 46 b 144 333 239 46 144 161 b 381 624 144 504 247 624 b 535 554 444 624 492 594 l 575 604 b 379 685 529 646 469 685 b 71 333 215 685 71 557 b 375 -17 71 113 201 -17 z "},"ç":{"ha":625,"x_min":0,"x_max":0,"o":"m 369 -90 l 403 -15 b 590 71 476 -8 539 25 l 554 121 b 379 46 510 79 450 46 b 144 333 239 46 144 161 b 381 624 144 504 247 624 b 535 554 444 624 492 594 l 575 604 b 379 685 529 646 469 685 b 71 333 215 685 71 557 b 350 -15 71 124 189 -4 l 300 -119 b 408 -189 376 -131 408 -150 b 253 -261 408 -231 372 -254 l 263 -306 b 469 -186 396 -299 469 -261 b 369 -90 469 -131 431 -104 z "},"d":{"ha":758,"x_min":0,"x_max":0,"o":"m 347 -17 b 563 85 435 -17 508 31 l 565 85 l 574 0 l 633 0 l 633 997 l 561 997 l 561 725 l 565 604 b 367 685 500 656 446 685 b 71 333 208 685 71 549 b 347 -17 71 108 181 -17 z m 360 46 b 146 333 222 46 146 158 b 372 624 146 499 244 624 b 561 540 436 624 494 600 l 561 153 b 360 46 494 83 431 46 z "},"ð":{"ha":746,"x_min":0,"x_max":0,"o":"m 468 842 l 653 938 l 629 979 l 432 876 b 240 1007 374 929 307 971 l 206 960 b 374 847 267 925 324 889 l 192 753 l 215 711 l 411 813 b 569 514 488 738 544 644 b 369 615 517 582 444 615 b 81 306 199 615 81 489 b 371 -17 81 104 222 -17 b 656 351 540 -17 656 129 b 468 842 656 575 579 729 z m 372 46 b 151 306 251 46 151 151 b 374 556 151 442 229 556 b 581 436 442 556 511 533 b 585 350 583 410 585 381 b 372 46 585 178 518 46 z "},"ḍ":{"ha":758,"x_min":0,"x_max":0,"o":"m 347 -17 b 563 85 435 -17 508 31 l 565 85 l 574 0 l 633 0 l 633 997 l 561 997 l 561 725 l 565 604 b 367 685 500 656 446 685 b 71 333 208 685 71 549 b 347 -17 71 108 181 -17 z m 360 46 b 146 333 222 46 146 158 b 372 624 146 499 244 624 b 561 540 436 624 494 600 l 561 153 b 360 46 494 83 431 46 z m 407 -274 b 464 -212 439 -274 464 -249 b 407 -154 464 -179 439 -154 b 350 -212 375 -154 350 -179 b 407 -274 350 -249 375 -274 z "},"ḏ":{"ha":758,"x_min":0,"x_max":0,"o":"m 347 -17 b 563 85 435 -17 508 31 l 565 85 l 574 0 l 633 0 l 633 997 l 561 997 l 561 725 l 565 604 b 367 685 500 656 446 685 b 71 333 208 685 71 549 b 347 -17 71 108 181 -17 z m 360 46 b 146 333 222 46 146 158 b 372 624 146 499 244 624 b 561 540 436 624 494 600 l 561 153 b 360 46 494 83 431 46 z m 233 -225 l 581 -225 l 581 -169 l 233 -169 l 233 -225 z "},"e":{"ha":674,"x_min":0,"x_max":0,"o":"m 622 375 b 364 685 622 571 525 685 b 71 333 213 685 71 551 b 382 -17 71 114 210 -17 b 594 50 478 -17 540 15 l 565 101 b 389 43 517 67 460 43 b 140 322 254 43 144 144 l 618 322 b 622 375 621 339 622 357 z m 143 379 b 364 625 158 546 264 625 b 556 379 482 625 556 543 l 143 379 z "},"é":{"ha":674,"x_min":0,"x_max":0,"o":"m 532 1007 l 479 1054 l 290 833 l 329 797 l 532 1007 z m 622 375 b 364 685 622 571 525 685 b 71 333 213 685 71 551 b 382 -17 71 114 210 -17 b 594 50 478 -17 540 15 l 565 101 b 389 43 517 67 460 43 b 140 322 254 43 144 144 l 618 322 b 622 375 621 339 622 357 z m 143 379 b 364 625 158 546 264 625 b 556 379 482 625 556 543 l 143 379 z "},"ĕ":{"ha":674,"x_min":0,"x_max":0,"o":"m 365 792 b 574 997 510 792 564 906 l 524 1006 b 365 844 513 929 464 844 b 207 1006 267 844 218 929 l 157 997 b 365 792 167 906 222 792 z m 622 375 b 364 685 622 571 525 685 b 71 333 213 685 71 551 b 382 -17 71 114 210 -17 b 594 50 478 -17 540 15 l 565 101 b 389 43 517 67 460 43 b 140 322 254 43 144 144 l 618 322 b 622 375 621 339 622 357 z m 143 379 b 364 625 158 546 264 625 b 556 379 482 625 556 543 l 143 379 z "},"ê":{"ha":674,"x_min":0,"x_max":0,"o":"m 363 965 l 368 965 l 526 794 l 561 825 l 400 1025 l 331 1025 l 169 825 l 204 794 l 363 965 z m 622 375 b 364 685 622 571 525 685 b 71 333 213 685 71 551 b 382 -17 71 114 210 -17 b 594 50 478 -17 540 15 l 565 101 b 389 43 517 67 460 43 b 140 322 254 43 144 144 l 618 322 b 622 375 621 339 622 357 z m 143 379 b 364 625 158 546 264 625 b 556 379 482 625 556 543 l 143 379 z "},"ë":{"ha":674,"x_min":0,"x_max":0,"o":"m 240 828 b 294 882 271 828 294 851 b 240 936 294 913 271 936 b 186 882 208 936 186 913 b 240 828 186 851 208 828 z m 490 828 b 544 882 522 828 544 851 b 490 936 544 913 522 936 b 436 882 460 936 436 913 b 490 828 436 851 460 828 z m 622 375 b 364 685 622 571 525 685 b 71 333 213 685 71 551 b 382 -17 71 114 210 -17 b 594 50 478 -17 540 15 l 565 101 b 389 43 517 67 460 43 b 140 322 254 43 144 144 l 618 322 b 622 375 621 339 622 357 z m 143 379 b 364 625 158 546 264 625 b 556 379 482 625 556 543 l 143 379 z "},"ẹ":{"ha":674,"x_min":0,"x_max":0,"o":"m 622 375 b 364 685 622 571 525 685 b 71 333 213 685 71 551 b 382 -17 71 114 210 -17 b 594 50 478 -17 540 15 l 565 101 b 389 43 517 67 460 43 b 140 322 254 43 144 144 l 618 322 b 622 375 621 339 622 357 z m 143 379 b 364 625 158 546 264 625 b 556 379 482 625 556 543 l 143 379 z m 351 -154 b 294 -212 319 -154 294 -179 b 351 -274 294 -249 319 -274 b 408 -212 383 -274 408 -249 b 351 -154 408 -179 383 -154 z "},"è":{"ha":674,"x_min":0,"x_max":0,"o":"m 440 833 l 251 1054 l 199 1007 l 401 797 l 440 833 z m 622 375 b 364 685 622 571 525 685 b 71 333 213 685 71 551 b 382 -17 71 114 210 -17 b 594 50 478 -17 540 15 l 565 101 b 389 43 517 67 460 43 b 140 322 254 43 144 144 l 618 322 b 622 375 621 339 622 357 z m 143 379 b 364 625 158 546 264 625 b 556 379 482 625 556 543 l 143 379 z "},"ē":{"ha":674,"x_min":0,"x_max":0,"o":"m 539 896 l 192 896 l 192 840 l 539 840 l 539 896 z m 622 375 b 364 685 622 571 525 685 b 71 333 213 685 71 551 b 382 -17 71 114 210 -17 b 594 50 478 -17 540 15 l 565 101 b 389 43 517 67 460 43 b 140 322 254 43 144 144 l 618 322 b 622 375 621 339 622 357 z m 143 379 b 364 625 158 546 264 625 b 556 379 482 625 556 543 l 143 379 z "},"ę":{"ha":674,"x_min":0,"x_max":0,"o":"m 494 -283 b 588 -249 525 -283 565 -268 l 564 -210 b 506 -229 546 -222 529 -229 b 438 -158 469 -229 438 -206 b 594 50 438 -99 475 -39 l 565 101 b 389 43 517 67 460 43 b 143 322 243 43 146 158 l 618 322 b 622 375 621 339 622 357 b 364 685 622 571 525 685 b 71 333 213 685 71 551 b 382 -17 71 114 210 -17 b 465 -4 411 -17 438 -14 b 379 -168 428 -37 379 -100 b 494 -283 379 -246 429 -283 z m 143 379 b 364 625 157 533 256 625 b 556 379 482 625 556 543 l 143 379 z "},"ɛ":{"ha":596,"x_min":0,"x_max":0,"o":"m 333 -17 b 567 63 426 -17 492 7 l 532 114 b 342 43 468 64 413 43 b 146 186 226 43 146 99 b 349 322 146 272 219 322 l 436 322 l 436 379 l 369 379 b 183 503 240 379 183 432 b 339 625 183 586 254 625 b 504 565 403 625 451 603 l 536 615 b 339 685 482 658 419 685 b 111 511 217 685 111 626 b 224 358 111 444 153 385 l 224 353 b 74 181 150 332 74 281 b 333 -17 74 63 182 -17 z "},"ʃ":{"ha":322,"x_min":0,"x_max":0,"o":"m 42 -315 b 197 -115 150 -315 197 -247 l 197 813 b 300 956 197 897 215 956 b 354 943 319 956 340 947 l 369 1000 b 296 1017 351 1008 325 1017 b 126 817 176 1017 126 949 l 126 -111 b 38 -254 126 -196 111 -254 b -32 -242 11 -254 -14 -247 l -47 -299 b 42 -315 -26 -307 8 -315 z "},"ʒ":{"ha":567,"x_min":0,"x_max":0,"o":"m 269 -315 b 543 -17 408 -315 543 -208 b 226 240 543 156 421 275 l 514 631 l 514 668 l 64 668 l 64 607 l 425 607 l 132 211 l 167 164 b 258 190 200 181 218 190 b 469 -19 396 190 469 110 b 267 -254 469 -160 376 -254 b 43 -161 156 -254 92 -208 l 4 -210 b 269 -315 58 -261 135 -315 z "},"f":{"ha":372,"x_min":0,"x_max":0,"o":"m 311 953 b 389 935 335 953 363 947 l 407 992 b 307 1014 376 1006 340 1014 b 136 810 196 1014 136 942 l 136 668 l 44 663 l 44 607 l 136 607 l 136 0 l 208 0 l 208 607 l 360 607 l 360 668 l 208 668 l 208 806 b 311 953 208 900 240 953 z "},"g":{"ha":681,"x_min":0,"x_max":0,"o":"m 346 -319 b 665 -93 540 -319 665 -210 b 443 63 665 14 593 63 l 301 63 b 176 146 204 63 176 100 b 228 240 176 189 200 217 b 336 213 258 222 300 213 b 572 447 468 213 572 310 b 503 610 572 515 543 574 l 654 610 l 654 668 l 426 668 b 336 685 406 678 374 685 b 99 449 206 685 99 588 b 183 267 99 368 140 303 l 183 261 b 110 138 153 239 110 196 b 169 29 110 86 136 50 l 169 24 b 69 -135 108 -18 69 -76 b 346 -319 69 -249 178 -319 z m 336 267 b 169 449 247 267 169 340 b 336 628 169 560 244 628 b 504 449 428 628 504 558 b 336 267 504 340 426 267 z m 353 -264 b 138 -126 217 -264 138 -210 b 221 8 138 -82 163 -32 b 304 -3 254 0 289 -3 l 443 -3 b 593 -101 542 -3 593 -29 b 353 -264 593 -182 500 -264 z "},"ǧ":{"ha":681,"x_min":0,"x_max":0,"o":"m 317 796 l 386 796 l 547 994 l 513 1026 l 354 856 l 349 856 l 190 1026 l 156 994 l 317 796 z m 346 -319 b 665 -93 540 -319 665 -210 b 443 63 665 14 593 63 l 301 63 b 176 146 204 63 176 100 b 228 240 176 189 200 217 b 336 213 258 222 300 213 b 572 447 468 213 572 310 b 503 610 572 515 543 574 l 654 610 l 654 668 l 426 668 b 336 685 406 678 374 685 b 99 449 206 685 99 588 b 183 267 99 368 140 303 l 183 261 b 110 138 153 239 110 196 b 169 29 110 86 136 50 l 169 24 b 69 -135 108 -18 69 -76 b 346 -319 69 -249 178 -319 z m 336 267 b 169 449 247 267 169 340 b 336 628 169 560 244 628 b 504 449 428 628 504 558 b 336 267 504 340 426 267 z m 353 -264 b 138 -126 217 -264 138 -210 b 221 8 138 -82 163 -32 b 304 -3 254 0 289 -3 l 443 -3 b 593 -101 542 -3 593 -29 b 353 -264 593 -182 500 -264 z "},"ġ":{"ha":681,"x_min":0,"x_max":0,"o":"m 351 825 b 408 886 383 825 408 850 b 351 944 408 919 383 944 b 294 886 319 944 294 919 b 351 825 294 850 319 825 z m 346 -319 b 665 -93 540 -319 665 -210 b 443 63 665 14 593 63 l 301 63 b 176 146 204 63 176 100 b 228 240 176 189 200 217 b 336 213 258 222 300 213 b 572 447 468 213 572 310 b 503 610 572 515 543 574 l 654 610 l 654 668 l 426 668 b 336 685 406 678 374 685 b 99 449 206 685 99 588 b 183 267 99 368 140 303 l 183 261 b 110 138 153 239 110 196 b 169 29 110 86 136 50 l 169 24 b 69 -135 108 -18 69 -76 b 346 -319 69 -249 178 -319 z m 336 267 b 169 449 247 267 169 340 b 336 628 169 560 244 628 b 504 449 428 628 504 558 b 336 267 504 340 426 267 z m 353 -264 b 138 -126 217 -264 138 -210 b 221 8 138 -82 163 -32 b 304 -3 254 0 289 -3 l 443 -3 b 593 -101 542 -3 593 -29 b 353 -264 593 -182 500 -264 z "},"ʔ":{"ha":558,"x_min":0,"x_max":0,"o":"m 214 0 l 286 0 l 286 417 b 529 756 426 504 529 593 b 261 1014 529 924 413 1014 b 1 894 132 1014 54 951 l 42 846 b 260 953 89 900 154 953 b 456 756 385 953 456 874 b 214 456 456 626 378 544 l 214 0 z "},"ʕ":{"ha":574,"x_min":0,"x_max":0,"o":"m 279 0 l 350 0 l 350 456 b 110 756 188 544 110 626 b 319 953 110 874 185 953 b 524 846 418 953 479 900 l 564 894 b 317 1014 514 951 440 1014 b 36 756 158 1014 36 924 b 279 417 36 593 139 504 l 279 0 z "},"ḡ":{"ha":681,"x_min":0,"x_max":0,"o":"m 178 840 l 525 840 l 525 896 l 178 896 l 178 840 z m 346 -319 b 665 -93 540 -319 665 -210 b 443 63 665 14 593 63 l 301 63 b 176 146 204 63 176 100 b 228 240 176 189 200 217 b 336 213 258 222 300 213 b 572 447 468 213 572 310 b 503 610 572 515 543 574 l 654 610 l 654 668 l 426 668 b 336 685 406 678 374 685 b 99 449 206 685 99 588 b 183 267 99 368 140 303 l 183 261 b 110 138 153 239 110 196 b 169 29 110 86 136 50 l 169 24 b 69 -135 108 -18 69 -76 b 346 -319 69 -249 178 -319 z m 336 267 b 169 449 247 267 169 340 b 336 628 169 560 244 628 b 504 449 428 628 504 558 b 336 267 504 340 426 267 z m 353 -264 b 138 -126 217 -264 138 -210 b 221 8 138 -82 163 -32 b 304 -3 254 0 289 -3 l 443 -3 b 593 -101 542 -3 593 -29 b 353 -264 593 -182 500 -264 z "},"h":{"ha":738,"x_min":0,"x_max":0,"o":"m 125 0 l 197 0 l 197 500 b 408 622 275 581 331 622 b 556 418 513 622 556 557 l 556 0 l 628 0 l 628 428 b 425 685 628 600 564 685 b 194 565 332 685 264 633 l 197 711 l 197 997 l 125 997 l 125 0 z "},"ħ":{"ha":738,"x_min":0,"x_max":0,"o":"m 425 636 b 194 517 332 636 264 585 l 197 663 l 197 804 l 457 804 l 457 854 l 197 854 l 197 997 l 125 997 l 125 854 l 19 847 l 19 804 l 125 804 l 125 0 l 197 0 l 197 451 b 408 574 275 532 331 574 b 556 369 513 574 556 508 l 556 0 l 628 0 l 628 379 b 425 636 628 551 564 636 z "},"ḫ":{"ha":738,"x_min":0,"x_max":0,"o":"m 125 0 l 197 0 l 197 500 b 408 622 275 581 331 622 b 556 418 513 622 556 557 l 556 0 l 628 0 l 628 428 b 425 685 628 600 564 685 b 194 565 332 685 264 633 l 197 711 l 197 997 l 125 997 l 125 0 z m 393 -321 b 601 -115 538 -321 592 -207 l 551 -107 b 393 -268 540 -183 492 -268 b 235 -107 294 -268 246 -183 l 185 -115 b 393 -321 194 -207 250 -321 z "},"ḥ":{"ha":738,"x_min":0,"x_max":0,"o":"m 125 0 l 197 0 l 197 500 b 408 622 275 581 331 622 b 556 418 513 622 556 557 l 556 0 l 628 0 l 628 428 b 425 685 628 600 564 685 b 194 565 332 685 264 633 l 197 711 l 197 997 l 125 997 l 125 0 z m 393 -274 b 450 -212 425 -274 450 -249 b 393 -154 450 -179 425 -154 b 336 -212 361 -154 336 -179 b 393 -274 336 -249 361 -274 z "},"ẖ":{"ha":738,"x_min":0,"x_max":0,"o":"m 125 0 l 197 0 l 197 500 b 408 622 275 581 331 622 b 556 418 513 622 556 557 l 556 0 l 628 0 l 628 428 b 425 685 628 600 564 685 b 194 565 332 685 264 633 l 197 711 l 197 997 l 125 997 l 125 0 z m 219 -225 l 567 -225 l 567 -169 l 219 -169 l 219 -225 z "},"i":{"ha":322,"x_min":0,"x_max":0,"o":"m 163 825 b 219 886 194 825 219 850 b 163 944 219 919 194 944 b 106 886 131 944 106 919 b 163 825 106 850 131 825 z m 125 0 l 197 0 l 197 668 l 125 668 l 125 0 z "},"ı":{"ha":322,"x_min":0,"x_max":0,"o":"m 125 0 l 197 0 l 197 668 l 125 668 l 125 0 z "},"í":{"ha":322,"x_min":0,"x_max":0,"o":"m 126 797 l 329 1007 l 276 1054 l 88 833 l 126 797 z m 125 0 l 197 0 l 197 668 l 125 668 l 125 0 z "},"î":{"ha":322,"x_min":0,"x_max":0,"o":"m 1 794 l 160 965 l 165 965 l 324 794 l 358 825 l 197 1025 l 128 1025 l -33 825 l 1 794 z m 125 0 l 197 0 l 197 668 l 125 668 l 125 0 z "},"ï":{"ha":322,"x_min":0,"x_max":0,"o":"m 38 828 b 92 882 68 828 92 851 b 38 936 92 913 68 936 b -17 882 6 936 -17 913 b 38 828 -17 851 6 828 z m 288 828 b 342 882 319 828 342 851 b 288 936 342 913 319 936 b 233 882 257 936 233 913 b 288 828 233 851 257 828 z m 125 0 l 197 0 l 197 668 l 125 668 l 125 0 z "},"ì":{"ha":322,"x_min":0,"x_max":0,"o":"m 199 797 l 238 833 l 49 1054 l -4 1007 l 199 797 z m 125 0 l 197 0 l 197 668 l 125 668 l 125 0 z "},"ī":{"ha":322,"x_min":0,"x_max":0,"o":"m -11 840 l 336 840 l 336 896 l -11 896 l -11 840 z m 125 0 l 197 0 l 197 668 l 125 668 l 125 0 z "},"j":{"ha":322,"x_min":0,"x_max":0,"o":"m 163 944 b 106 886 131 944 106 919 b 163 825 106 850 131 825 b 219 886 194 825 219 850 b 163 944 219 919 194 944 z m 128 -111 b 39 -254 128 -196 113 -254 b -31 -242 13 -254 -12 -247 l -46 -299 b 42 -315 -25 -307 10 -315 b 199 -115 151 -315 199 -247 l 199 668 l 128 668 l 128 -111 z "},"k":{"ha":651,"x_min":0,"x_max":0,"o":"m 125 0 l 196 0 l 196 181 l 342 351 l 558 0 l 638 0 l 383 403 l 601 668 l 521 668 l 199 274 l 196 274 l 196 997 l 125 997 l 125 0 z "},"ḳ":{"ha":651,"x_min":0,"x_max":0,"o":"m 125 0 l 196 0 l 196 181 l 342 351 l 558 0 l 638 0 l 383 403 l 601 668 l 521 668 l 199 274 l 196 274 l 196 997 l 125 997 l 125 0 z m 361 -274 b 418 -212 393 -274 418 -249 b 361 -154 418 -179 393 -154 b 304 -212 329 -154 304 -179 b 361 -274 304 -249 329 -274 z "},"ḵ":{"ha":651,"x_min":0,"x_max":0,"o":"m 125 0 l 196 0 l 196 181 l 342 351 l 558 0 l 638 0 l 383 403 l 601 668 l 521 668 l 199 274 l 196 274 l 196 997 l 125 997 l 125 0 z m 188 -225 l 535 -225 l 535 -169 l 188 -169 l 188 -225 z "},"l":{"ha":333,"x_min":0,"x_max":0,"o":"m 214 -17 b 263 -10 236 -17 249 -12 l 251 49 b 226 46 238 46 232 46 b 197 90 210 46 197 60 l 197 997 l 125 997 l 125 99 b 214 -17 125 21 154 -17 z "},"ł":{"ha":338,"x_min":0,"x_max":0,"o":"m 229 46 b 200 90 213 46 200 60 l 200 538 l 306 607 l 278 654 l 200 603 l 200 997 l 128 997 l 128 563 l 11 489 l 39 440 l 128 497 l 128 99 b 217 -17 128 21 157 -17 b 265 -10 239 -17 251 -12 l 254 49 b 229 46 240 46 235 46 z "},"m":{"ha":1132,"x_min":0,"x_max":0,"o":"m 125 0 l 197 0 l 197 500 b 390 622 268 582 332 622 b 536 418 490 622 536 557 l 536 0 l 607 0 l 607 500 b 801 622 679 582 740 622 b 946 418 900 622 946 557 l 946 0 l 1017 0 l 1017 428 b 817 685 1017 600 950 685 b 592 550 739 685 665 632 b 407 685 567 632 513 685 b 196 567 331 685 256 633 l 193 567 l 185 668 l 125 668 l 125 0 z "},"n":{"ha":742,"x_min":0,"x_max":0,"o":"m 125 0 l 197 0 l 197 500 b 408 622 275 581 331 622 b 556 418 513 622 556 557 l 556 0 l 628 0 l 628 428 b 425 685 628 600 564 685 b 196 567 332 685 263 633 l 193 567 l 185 668 l 125 668 l 125 0 z "},"ñ":{"ha":742,"x_min":0,"x_max":0,"o":"m 499 804 b 624 981 590 804 619 892 l 571 985 b 500 860 568 915 547 860 b 292 989 425 860 393 989 b 165 813 199 989 169 903 l 218 808 b 290 933 221 879 242 933 b 499 804 364 933 396 804 z m 125 0 l 197 0 l 197 500 b 408 622 275 581 331 622 b 556 418 513 622 556 557 l 556 0 l 628 0 l 628 428 b 425 685 628 600 564 685 b 196 567 332 685 263 633 l 193 567 l 185 668 l 125 668 l 125 0 z "},"o":{"ha":744,"x_min":0,"x_max":0,"o":"m 372 -17 b 675 333 533 -17 675 113 b 372 685 675 557 533 685 b 71 333 211 685 71 557 b 372 -17 71 113 211 -17 z m 372 46 b 144 333 242 46 144 161 b 372 624 144 504 242 624 b 600 333 504 624 600 504 b 372 46 600 161 504 46 z "},"ó":{"ha":744,"x_min":0,"x_max":0,"o":"m 336 797 l 539 1007 l 486 1054 l 297 833 l 336 797 z m 372 -17 b 675 333 533 -17 675 113 b 372 685 675 557 533 685 b 71 333 211 685 71 557 b 372 -17 71 113 211 -17 z m 372 46 b 144 333 242 46 144 161 b 372 624 144 504 242 624 b 600 333 504 624 600 504 b 372 46 600 161 504 46 z "},"ŏ":{"ha":744,"x_min":0,"x_max":0,"o":"m 372 792 b 581 997 517 792 571 906 l 531 1006 b 372 844 519 929 471 844 b 214 1006 274 844 225 929 l 164 997 b 372 792 174 906 229 792 z m 372 -17 b 675 333 533 -17 675 113 b 372 685 675 557 533 685 b 71 333 211 685 71 557 b 372 -17 71 113 211 -17 z m 372 46 b 144 333 242 46 144 161 b 372 624 144 504 242 624 b 600 333 504 624 600 504 b 372 46 600 161 504 46 z "},"ô":{"ha":744,"x_min":0,"x_max":0,"o":"m 211 794 l 369 965 l 375 965 l 533 794 l 568 825 l 407 1025 l 338 1025 l 176 825 l 211 794 z m 372 -17 b 675 333 533 -17 675 113 b 372 685 675 557 533 685 b 71 333 211 685 71 557 b 372 -17 71 113 211 -17 z m 372 46 b 144 333 242 46 144 161 b 372 624 144 504 242 624 b 600 333 504 624 600 504 b 372 46 600 161 504 46 z "},"ö":{"ha":744,"x_min":0,"x_max":0,"o":"m 247 828 b 301 882 278 828 301 851 b 247 936 301 913 278 936 b 193 882 215 936 193 913 b 247 828 193 851 215 828 z m 497 828 b 551 882 529 828 551 851 b 497 936 551 913 529 936 b 443 882 467 936 443 913 b 497 828 443 851 467 828 z m 372 -17 b 675 333 533 -17 675 113 b 372 685 675 557 533 685 b 71 333 211 685 71 557 b 372 -17 71 113 211 -17 z m 372 46 b 144 333 242 46 144 161 b 372 624 144 504 242 624 b 600 333 504 624 600 504 b 372 46 600 161 504 46 z "},"ọ":{"ha":744,"x_min":0,"x_max":0,"o":"m 372 -17 b 675 333 533 -17 675 113 b 372 685 675 557 533 685 b 71 333 211 685 71 557 b 372 -17 71 113 211 -17 z m 372 46 b 144 333 242 46 144 161 b 372 624 144 504 242 624 b 600 333 504 624 600 504 b 372 46 600 161 504 46 z m 372 -274 b 429 -212 404 -274 429 -249 b 372 -154 429 -179 404 -154 b 315 -212 340 -154 315 -179 b 372 -274 315 -249 340 -274 z "},"ò":{"ha":744,"x_min":0,"x_max":0,"o":"m 408 797 l 447 833 l 258 1054 l 206 1007 l 408 797 z m 372 -17 b 675 333 533 -17 675 113 b 372 685 675 557 533 685 b 71 333 211 685 71 557 b 372 -17 71 113 211 -17 z m 372 46 b 144 333 242 46 144 161 b 372 624 144 504 242 624 b 600 333 504 624 600 504 b 372 46 600 161 504 46 z "},"ō":{"ha":744,"x_min":0,"x_max":0,"o":"m 199 840 l 546 840 l 546 896 l 199 896 l 199 840 z m 372 -17 b 675 333 533 -17 675 113 b 372 685 675 557 533 685 b 71 333 211 685 71 557 b 372 -17 71 113 211 -17 z m 372 46 b 144 333 242 46 144 161 b 372 624 144 504 242 624 b 600 333 504 624 600 504 b 372 46 600 161 504 46 z "},"ɔ":{"ha":625,"x_min":0,"x_max":0,"o":"m 249 -17 b 554 333 421 -17 554 113 b 264 685 554 560 418 685 b 50 604 160 685 101 647 l 90 554 b 258 624 135 596 183 624 b 481 333 382 624 481 507 b 244 46 481 161 383 46 b 71 121 175 46 115 79 l 35 71 b 249 -17 93 19 165 -17 z "},"ø":{"ha":744,"x_min":0,"x_max":0,"o":"m 681 667 l 642 699 l 568 610 b 372 685 514 658 444 685 b 71 333 211 685 71 557 b 143 96 71 235 99 156 l 64 0 l 103 -32 l 178 58 b 372 -17 231 10 300 -17 b 675 333 533 -17 675 113 b 601 572 675 432 647 513 l 681 667 z m 143 335 b 372 625 143 506 242 625 b 525 557 432 625 485 600 l 189 151 b 143 335 160 199 143 261 z m 601 331 b 372 44 601 160 504 44 b 219 110 313 44 260 68 l 556 515 b 601 331 585 467 601 404 z "},"õ":{"ha":744,"x_min":0,"x_max":0,"o":"m 476 804 b 601 981 568 804 597 892 l 549 985 b 478 860 546 915 525 860 b 269 989 403 860 371 989 b 143 813 176 989 147 903 l 196 808 b 268 933 199 879 219 933 b 476 804 342 933 374 804 z m 372 -17 b 675 333 533 -17 675 113 b 372 685 675 557 533 685 b 71 333 211 685 71 557 b 372 -17 71 113 211 -17 z m 372 46 b 144 333 242 46 144 161 b 372 624 144 504 242 624 b 600 333 504 624 600 504 b 372 46 600 161 504 46 z "},"œ":{"ha":1176,"x_min":0,"x_max":0,"o":"m 365 -17 b 622 174 482 -17 571 47 b 883 -17 672 57 768 -17 b 1096 50 981 -17 1043 15 l 1068 103 b 890 44 1018 68 961 44 b 657 322 760 44 657 160 l 1119 322 b 1124 374 1122 339 1124 356 b 869 685 1124 569 1028 685 b 622 493 763 685 671 611 b 367 685 575 619 472 685 b 71 333 210 685 71 557 b 365 -17 71 113 208 -17 z m 657 375 b 868 625 669 524 761 625 b 1058 375 983 625 1058 539 l 657 375 z m 367 46 b 144 333 239 46 144 161 b 367 624 144 504 239 624 b 588 333 496 624 588 504 b 367 46 588 161 496 46 z "},"p":{"ha":758,"x_min":0,"x_max":0,"o":"m 125 -299 l 197 -299 l 197 -57 l 196 65 b 393 -17 264 13 331 -17 b 688 344 550 -17 688 117 b 419 685 688 551 599 685 b 196 586 339 685 260 638 l 193 586 l 185 668 l 125 668 l 125 -299 z m 388 46 b 197 129 338 46 269 68 l 197 517 b 407 624 275 586 343 624 b 613 344 556 624 613 506 b 388 46 613 165 518 46 z "},"þ":{"ha":758,"x_min":0,"x_max":0,"o":"m 125 -299 l 197 -299 l 197 -57 l 196 64 b 393 -17 264 13 329 -17 b 688 344 550 -17 688 117 b 418 685 688 551 597 685 b 196 589 339 685 261 639 l 197 713 l 197 997 l 125 997 l 125 -299 z m 388 46 b 197 129 338 46 269 68 l 197 517 b 407 624 275 586 343 624 b 613 344 556 624 613 506 b 388 46 613 165 518 46 z "},"q":{"ha":758,"x_min":0,"x_max":0,"o":"m 561 -299 l 633 -299 l 633 668 l 575 668 l 567 606 l 564 606 b 367 685 501 656 446 685 b 71 333 208 685 71 549 b 347 -17 71 108 181 -17 b 565 86 433 -17 507 31 l 561 -44 l 561 -299 z m 360 46 b 146 333 222 46 146 158 b 372 624 146 499 244 624 b 561 540 436 624 494 600 l 561 153 b 360 46 494 83 431 46 z "},"r":{"ha":449,"x_min":0,"x_max":0,"o":"m 125 0 l 197 0 l 197 450 b 376 618 247 574 317 618 b 438 607 403 618 415 615 l 453 671 b 386 685 432 682 411 685 b 196 544 307 685 242 626 l 193 544 l 185 668 l 125 668 l 125 0 z "},"s":{"ha":567,"x_min":0,"x_max":0,"o":"m 290 -17 b 518 174 438 -17 518 72 b 303 378 518 304 406 339 b 146 510 224 407 146 435 b 293 626 146 568 192 626 b 451 565 358 626 406 599 l 488 615 b 293 685 439 654 368 685 b 75 506 153 685 75 603 b 286 314 75 392 186 349 b 447 169 363 286 447 250 b 293 43 447 101 394 43 b 83 126 200 43 140 79 l 44 76 b 290 -17 104 25 192 -17 z "},"ś":{"ha":567,"x_min":0,"x_max":0,"o":"m 260 797 l 463 1007 l 410 1054 l 221 833 l 260 797 z m 290 -17 b 518 174 438 -17 518 72 b 303 378 518 304 406 339 b 146 510 224 407 146 435 b 293 626 146 568 192 626 b 451 565 358 626 406 599 l 488 615 b 293 685 439 654 368 685 b 75 506 153 685 75 603 b 286 314 75 392 186 349 b 447 169 363 286 447 250 b 293 43 447 101 394 43 b 83 126 200 43 140 79 l 44 76 b 290 -17 104 25 192 -17 z "},"š":{"ha":567,"x_min":0,"x_max":0,"o":"m 261 796 l 331 796 l 492 994 l 457 1026 l 299 856 l 293 856 l 135 1026 l 100 994 l 261 796 z m 290 -17 b 518 174 438 -17 518 72 b 303 378 518 304 406 339 b 146 510 224 407 146 435 b 293 626 146 568 192 626 b 451 565 358 626 406 599 l 488 615 b 293 685 439 654 368 685 b 75 506 153 685 75 603 b 286 314 75 392 186 349 b 447 169 363 286 447 250 b 293 43 447 101 394 43 b 83 126 200 43 140 79 l 44 76 b 290 -17 104 25 192 -17 z "},"ṣ":{"ha":567,"x_min":0,"x_max":0,"o":"m 290 -17 b 518 174 438 -17 518 72 b 303 378 518 304 406 339 b 146 510 224 407 146 435 b 293 626 146 568 192 626 b 451 565 358 626 406 599 l 488 615 b 293 685 439 654 368 685 b 75 506 153 685 75 603 b 286 314 75 392 186 349 b 447 169 363 286 447 250 b 293 43 447 101 394 43 b 83 126 200 43 140 79 l 44 76 b 290 -17 104 25 192 -17 z m 303 -274 b 360 -212 335 -274 360 -249 b 303 -154 360 -179 335 -154 b 246 -212 271 -154 246 -179 b 303 -274 246 -249 271 -274 z "},"ß":{"ha":763,"x_min":0,"x_max":0,"o":"m 515 -17 b 721 179 638 -17 721 68 b 433 522 721 411 433 367 b 569 822 433 631 569 679 b 369 1011 569 928 494 1011 b 125 735 219 1011 125 906 l 125 0 l 196 0 l 196 714 b 367 950 196 875 264 950 b 497 815 453 950 497 893 b 364 515 497 692 364 649 b 651 175 364 317 651 363 b 514 43 651 107 604 43 b 358 107 457 43 410 64 l 325 54 b 515 -17 378 10 442 -17 z "},"ə":{"ha":674,"x_min":0,"x_max":0,"o":"m 322 -17 b 604 336 483 -17 604 118 b 318 685 604 558 483 685 b 94 615 221 685 151 654 l 122 563 b 310 625 176 600 233 625 b 531 361 447 625 528 513 l 56 361 b 53 306 53 344 53 324 b 322 -17 53 99 164 -17 z m 321 43 b 118 304 201 43 118 126 l 532 304 b 321 43 519 142 443 43 z "},"t":{"ha":440,"x_min":0,"x_max":0,"o":"m 313 -17 b 425 8 343 -17 386 -6 l 407 65 b 325 44 383 54 349 44 b 213 185 236 44 213 100 l 213 607 l 404 607 l 404 668 l 213 668 l 213 861 l 153 861 l 144 668 l 39 663 l 39 607 l 142 607 l 142 189 b 313 -17 142 67 182 -17 z "},"ṭ":{"ha":440,"x_min":0,"x_max":0,"o":"m 313 -17 b 425 8 343 -17 386 -6 l 407 65 b 325 44 383 54 349 44 b 213 185 236 44 213 100 l 213 607 l 404 607 l 404 668 l 213 668 l 213 861 l 153 861 l 144 668 l 39 663 l 39 607 l 142 607 l 142 189 b 313 -17 142 67 182 -17 z m 276 -274 b 333 -212 308 -274 333 -249 b 276 -154 333 -179 308 -154 b 219 -212 244 -154 219 -179 b 276 -274 219 -249 244 -274 z "},"ʧ":{"ha":500,"x_min":0,"x_max":0,"o":"m 478 -315 b 635 -115 588 -315 635 -247 l 635 813 b 736 956 635 897 651 956 b 792 943 757 956 778 947 l 807 1000 b 733 1017 789 1008 761 1017 b 563 817 614 1017 563 949 l 563 -111 b 475 -254 563 -196 549 -254 b 406 -242 449 -254 422 -247 l 390 -299 b 478 -315 411 -307 444 -315 z m 313 -17 b 425 8 343 -17 386 -6 l 407 65 b 325 44 383 54 349 44 b 213 185 236 44 213 100 l 213 607 l 404 607 l 404 668 l 213 668 l 213 861 l 153 861 l 144 668 l 39 663 l 39 607 l 142 607 l 142 189 b 313 -17 142 67 182 -17 z "},"ṯ":{"ha":440,"x_min":0,"x_max":0,"o":"m 313 -17 b 425 8 343 -17 386 -6 l 407 65 b 325 44 383 54 349 44 b 213 185 236 44 213 100 l 213 607 l 404 607 l 404 668 l 213 668 l 213 861 l 153 861 l 144 668 l 39 663 l 39 607 l 142 607 l 142 189 b 313 -17 142 67 182 -17 z m 103 -225 l 450 -225 l 450 -169 l 103 -169 l 103 -225 z "},"u":{"ha":739,"x_min":0,"x_max":0,"o":"m 318 -17 b 543 111 410 -17 478 35 l 547 111 l 554 0 l 614 0 l 614 668 l 543 668 l 543 179 b 333 47 467 88 411 47 b 186 250 231 47 186 111 l 186 668 l 115 668 l 115 240 b 318 -17 115 68 179 -17 z "},"ú":{"ha":739,"x_min":0,"x_max":0,"o":"m 336 797 l 539 1007 l 486 1054 l 297 833 l 336 797 z m 318 -17 b 543 111 410 -17 478 35 l 547 111 l 554 0 l 614 0 l 614 668 l 543 668 l 543 179 b 333 47 467 88 411 47 b 186 250 231 47 186 111 l 186 668 l 115 668 l 115 240 b 318 -17 115 68 179 -17 z "},"û":{"ha":739,"x_min":0,"x_max":0,"o":"m 211 794 l 369 965 l 375 965 l 533 794 l 568 825 l 407 1025 l 338 1025 l 176 825 l 211 794 z m 318 -17 b 543 111 410 -17 478 35 l 547 111 l 554 0 l 614 0 l 614 668 l 543 668 l 543 179 b 333 47 467 88 411 47 b 186 250 231 47 186 111 l 186 668 l 115 668 l 115 240 b 318 -17 115 68 179 -17 z "},"ü":{"ha":739,"x_min":0,"x_max":0,"o":"m 247 828 b 301 882 278 828 301 851 b 247 936 301 913 278 936 b 193 882 215 936 193 913 b 247 828 193 851 215 828 z m 497 828 b 551 882 529 828 551 851 b 497 936 551 913 529 936 b 443 882 467 936 443 913 b 497 828 443 851 467 828 z m 318 -17 b 543 111 410 -17 478 35 l 547 111 l 554 0 l 614 0 l 614 668 l 543 668 l 543 179 b 333 47 467 88 411 47 b 186 250 231 47 186 111 l 186 668 l 115 668 l 115 240 b 318 -17 115 68 179 -17 z "},"ù":{"ha":739,"x_min":0,"x_max":0,"o":"m 408 797 l 447 833 l 258 1054 l 206 1007 l 408 797 z m 318 -17 b 543 111 410 -17 478 35 l 547 111 l 554 0 l 614 0 l 614 668 l 543 668 l 543 179 b 333 47 467 88 411 47 b 186 250 231 47 186 111 l 186 668 l 115 668 l 115 240 b 318 -17 115 68 179 -17 z "},"ū":{"ha":739,"x_min":0,"x_max":0,"o":"m 199 840 l 546 840 l 546 896 l 199 896 l 199 840 z m 318 -17 b 543 111 410 -17 478 35 l 547 111 l 554 0 l 614 0 l 614 668 l 543 668 l 543 179 b 333 47 467 88 411 47 b 186 250 231 47 186 111 l 186 668 l 115 668 l 115 240 b 318 -17 115 68 179 -17 z "},"v":{"ha":611,"x_min":0,"x_max":0,"o":"m 265 0 l 350 0 l 594 668 l 524 668 l 378 257 l 311 64 l 306 64 b 239 257 283 125 260 193 l 93 668 l 17 668 l 265 0 z "},"ṿ":{"ha":611,"x_min":0,"x_max":0,"o":"m 265 0 l 350 0 l 594 668 l 524 668 l 378 257 l 311 64 l 306 64 b 239 257 283 125 260 193 l 93 668 l 17 668 l 265 0 z m 307 -274 b 364 -212 339 -274 364 -249 b 307 -154 364 -179 339 -154 b 250 -212 275 -154 250 -179 b 307 -274 250 -249 275 -274 z "},"w":{"ha":960,"x_min":0,"x_max":0,"o":"m 228 0 l 314 0 l 425 403 b 476 596 446 467 461 531 l 482 596 b 532 404 500 531 514 468 l 646 0 l 738 0 l 926 668 l 856 668 l 742 244 b 694 64 725 182 711 125 l 689 64 b 640 244 674 125 657 182 l 522 668 l 442 668 l 324 244 l 275 64 l 269 64 b 225 244 257 125 242 182 l 108 668 l 33 668 l 228 0 z "},"x":{"ha":575,"x_min":0,"x_max":0,"o":"m 19 0 l 94 0 l 204 178 b 279 300 231 219 254 260 l 285 300 b 363 178 313 260 339 218 l 478 0 l 556 0 l 331 343 l 538 668 l 463 668 l 364 503 b 296 393 340 467 319 429 l 290 393 b 221 503 267 429 242 467 l 117 668 l 38 668 l 244 350 l 19 0 z "},"y":{"ha":614,"x_min":0,"x_max":0,"o":"m 106 -301 b 335 -79 228 -301 296 -194 l 597 668 l 525 668 l 388 258 b 326 69 368 200 347 129 l 321 69 b 249 258 297 131 271 201 l 93 668 l 17 668 l 290 -11 l 272 -67 b 106 -237 239 -165 185 -237 b 51 -228 86 -237 65 -232 l 35 -287 b 106 -301 54 -296 79 -301 z "},"ý":{"ha":614,"x_min":0,"x_max":0,"o":"m 286 797 l 489 1007 l 436 1054 l 247 833 l 286 797 z m 106 -301 b 335 -79 228 -301 296 -194 l 597 668 l 525 668 l 388 258 b 326 69 368 200 347 129 l 321 69 b 249 258 297 131 271 201 l 93 668 l 17 668 l 290 -11 l 272 -67 b 106 -237 239 -165 185 -237 b 51 -228 86 -237 65 -232 l 35 -287 b 106 -301 54 -296 79 -301 z "},"ÿ":{"ha":614,"x_min":0,"x_max":0,"o":"m 197 828 b 251 882 228 828 251 851 b 197 936 251 913 228 936 b 143 882 165 936 143 913 b 197 828 143 851 165 828 z m 447 828 b 501 882 479 828 501 851 b 447 936 501 913 479 936 b 393 882 417 936 393 913 b 447 828 393 851 417 828 z m 106 -301 b 335 -79 228 -301 296 -194 l 597 668 l 525 668 l 388 258 b 326 69 368 200 347 129 l 321 69 b 249 258 297 131 271 201 l 93 668 l 17 668 l 290 -11 l 272 -67 b 106 -237 239 -165 185 -237 b 51 -228 86 -237 65 -232 l 35 -287 b 106 -301 54 -296 79 -301 z "},"ʎ":{"ha":614,"x_min":0,"x_max":0,"o":"m 17 0 l 89 0 l 226 411 b 288 599 246 468 267 539 l 293 599 b 364 411 317 539 343 468 l 521 0 l 597 0 l 324 679 l 357 779 b 525 951 390 878 444 951 b 578 940 543 951 565 946 l 594 1000 b 524 1014 575 1008 550 1014 b 294 792 401 1014 333 907 l 17 0 z "},"z":{"ha":567,"x_min":0,"x_max":0,"o":"m 39 0 l 531 0 l 531 61 l 131 61 l 518 631 l 518 668 l 82 668 l 82 607 l 426 607 l 39 38 l 39 0 z "},"ž":{"ha":567,"x_min":0,"x_max":0,"o":"m 275 796 l 344 796 l 506 994 l 471 1026 l 313 856 l 307 856 l 149 1026 l 114 994 l 275 796 z m 39 0 l 531 0 l 531 61 l 131 61 l 518 631 l 518 668 l 82 668 l 82 607 l 426 607 l 39 38 l 39 0 z "},"ẓ":{"ha":567,"x_min":0,"x_max":0,"o":"m 39 0 l 531 0 l 531 61 l 131 61 l 518 631 l 518 668 l 82 668 l 82 607 l 426 607 l 39 38 l 39 0 z m 304 -274 b 361 -212 336 -274 361 -249 b 304 -154 361 -179 336 -154 b 247 -212 272 -154 247 -179 b 304 -274 247 -249 272 -274 z "},"ẕ":{"ha":567,"x_min":0,"x_max":0,"o":"m 39 0 l 531 0 l 531 61 l 131 61 l 518 631 l 518 668 l 82 668 l 82 607 l 426 607 l 39 38 l 39 0 z m 131 -225 l 478 -225 l 478 -169 l 131 -169 l 131 -225 z "},"ﬁ":{"ha":694,"x_min":0,"x_max":0,"o":"m 136 810 l 136 668 l 44 663 l 44 607 l 136 607 l 136 0 l 208 0 l 208 607 l 360 607 l 360 668 l 208 668 l 208 806 b 311 953 208 900 240 953 b 389 935 335 953 363 947 l 407 992 b 307 1014 376 1006 340 1014 b 136 810 196 1014 136 942 z m 535 944 b 478 886 503 944 478 919 b 535 825 478 850 503 825 b 592 886 567 825 592 850 b 535 944 592 919 567 944 z m 497 0 l 569 0 l 569 668 l 497 668 l 497 0 z "},"ﬂ":{"ha":706,"x_min":0,"x_max":0,"o":"m 136 810 l 136 668 l 44 663 l 44 607 l 136 607 l 136 0 l 208 0 l 208 607 l 360 607 l 360 668 l 208 668 l 208 806 b 311 953 208 900 240 953 b 389 935 335 953 363 947 l 407 992 b 307 1014 376 1006 340 1014 b 136 810 196 1014 136 942 z m 624 49 b 599 46 610 46 604 46 b 569 90 582 46 569 60 l 569 997 l 497 997 l 497 99 b 586 -17 497 21 526 -17 b 635 -10 608 -17 621 -12 l 624 49 z "},"ª":{"ha":471,"x_min":0,"x_max":0,"o":"m 192 550 b 338 615 251 550 300 581 l 344 615 l 353 561 l 399 561 l 399 838 b 254 1014 399 944 361 1014 b 76 956 182 1014 114 981 l 99 913 b 247 964 132 936 192 964 b 340 842 321 964 340 910 b 57 678 144 822 57 775 b 192 550 57 597 113 550 z m 207 599 b 117 682 151 599 117 625 b 340 801 117 742 174 783 l 340 665 b 207 599 293 619 249 599 z "},"º":{"ha":501,"x_min":0,"x_max":0,"o":"m 249 550 b 454 782 361 550 454 636 b 249 1014 454 929 361 1014 b 44 782 138 1014 44 929 b 249 550 44 636 138 550 z m 249 600 b 106 782 163 600 106 675 b 249 964 106 890 163 964 b 393 782 336 964 393 890 b 249 600 393 675 336 600 z "},"θ":{"ha":707,"x_min":0,"x_max":0,"o":"m 354 1014 b 89 503 188 1014 89 831 b 354 -17 89 139 188 -17 b 618 503 519 -17 618 139 b 354 1014 618 831 519 1014 z m 354 953 b 546 533 461 953 540 815 l 163 533 b 354 953 168 815 246 953 z m 354 46 b 163 476 244 46 167 161 l 546 476 b 354 46 542 161 463 46 z "},"π":{"ha":781,"x_min":0,"x_max":0,"o":"m 649 -17 b 728 -4 682 -17 706 -10 l 715 53 b 660 46 689 49 671 46 b 596 114 617 46 596 67 b 607 606 596 194 599 436 l 746 606 l 746 668 l 128 668 l 33 663 l 33 606 l 193 606 b 146 0 193 410 174 193 l 219 -4 b 260 606 239 188 260 404 l 538 606 b 529 122 535 442 529 204 b 649 -17 529 28 565 -17 z "},"χ":{"ha":638,"x_min":0,"x_max":0,"o":"m 83 -265 l 318 164 l 324 164 l 575 -265 l 643 -244 l 357 226 l 597 668 l 521 668 l 324 293 l 318 293 l 92 685 l 21 664 l 283 226 l 14 -249 l 83 -265 z "},"א":{"ha":751,"x_min":0,"x_max":0,"o":"m 699 0 l 501 290 l 656 764 l 581 764 l 488 468 l 457 357 l 317 565 l 190 764 l 111 764 l 238 565 l 201 478 l 50 0 l 124 0 l 281 497 l 615 0 l 699 0 z "},"ב":{"ha":724,"x_min":0,"x_max":0,"o":"m 564 64 l 564 507 b 333 764 564 694 472 764 l 78 764 l 78 701 l 319 701 b 489 508 421 701 489 653 l 489 64 l 78 64 l 78 0 l 489 0 l 665 0 l 665 64 l 564 64 z "},"ג":{"ha":493,"x_min":0,"x_max":0,"o":"m 426 0 l 375 281 l 375 551 b 235 763 375 679 344 743 l 133 779 l 122 717 l 213 703 b 300 547 286 690 300 640 l 300 282 b 40 46 242 157 158 89 l 68 -18 b 315 201 176 21 260 89 l 353 0 l 426 0 z "},"ד":{"ha":740,"x_min":0,"x_max":0,"o":"m 444 0 l 519 0 l 519 539 b 556 701 519 589 526 653 l 657 701 l 657 764 l 82 764 l 82 701 l 482 701 b 444 539 457 663 444 606 l 444 0 z "},"ה":{"ha":746,"x_min":0,"x_max":0,"o":"m 568 0 l 644 0 l 644 507 b 413 764 644 694 551 764 l 88 764 l 88 701 l 400 701 b 568 508 500 701 568 653 l 568 0 z m 88 0 l 164 0 l 164 467 l 99 467 l 88 374 l 88 0 z "},"ו":{"ha":296,"x_min":0,"x_max":0,"o":"m 115 0 l 192 0 l 192 601 l 172 764 l 97 764 l 115 601 l 115 0 z "},"ז":{"ha":494,"x_min":0,"x_max":0,"o":"m 189 0 l 265 0 l 265 539 b 300 701 265 589 271 653 l 411 701 l 411 764 l 83 764 l 83 701 l 226 701 b 189 539 203 663 189 606 l 189 0 z "},"ח":{"ha":768,"x_min":0,"x_max":0,"o":"m 433 764 l 93 764 l 93 746 l 93 0 l 168 0 l 168 701 l 419 701 b 589 485 532 701 589 626 l 589 0 l 664 0 l 664 483 b 433 764 664 671 582 764 z "},"ט":{"ha":751,"x_min":0,"x_max":0,"o":"m 165 -14 b 682 469 451 0 694 131 l 681 508 b 426 769 675 678 582 758 l 351 775 l 346 711 l 415 707 b 608 496 546 699 608 619 l 608 464 b 233 58 619 171 421 78 l 149 764 l 72 764 l 165 -14 z "},"י":{"ha":296,"x_min":0,"x_max":0,"o":"m 115 292 l 190 310 l 192 397 l 192 601 l 172 764 l 97 764 l 115 601 l 115 292 z "},"ך":{"ha":694,"x_min":0,"x_max":0,"o":"m 515 -278 l 590 -278 l 590 507 b 360 764 590 694 499 764 l 83 764 l 83 701 l 346 701 b 515 508 447 701 515 653 l 515 -278 z "},"כ":{"ha":649,"x_min":0,"x_max":0,"o":"m 69 0 l 251 0 b 565 343 449 0 565 114 l 565 421 b 251 764 565 650 449 764 l 69 764 l 69 701 l 240 701 b 489 424 406 701 489 608 l 489 342 b 240 64 489 156 406 64 l 69 64 l 69 0 z "},"ל":{"ha":651,"x_min":0,"x_max":0,"o":"m 136 764 l 136 996 l 64 996 l 64 701 l 506 701 l 232 0 l 307 0 l 582 697 l 582 764 l 136 764 z "},"ם":{"ha":800,"x_min":0,"x_max":0,"o":"m 465 764 l 190 764 l 115 764 l 115 0 l 136 0 l 621 0 l 697 0 l 697 507 b 465 764 697 694 604 764 z m 190 64 l 190 701 l 453 701 b 621 508 553 701 621 653 l 621 64 l 190 64 z "},"מ":{"ha":822,"x_min":0,"x_max":0,"o":"m 747 415 b 467 769 740 688 614 769 b 238 594 369 769 276 717 l 161 764 l 83 764 l 190 542 l 85 0 l 161 0 l 263 540 b 460 707 288 628 343 707 b 674 415 574 707 668 640 b 335 60 681 133 571 7 l 326 -3 b 747 415 601 -61 756 89 z "},"ן":{"ha":296,"x_min":0,"x_max":0,"o":"m 115 -278 l 192 -278 l 192 601 l 172 764 l 97 764 l 115 601 l 115 -278 z "},"נ":{"ha":504,"x_min":0,"x_max":0,"o":"m 72 0 l 401 0 l 401 549 b 229 763 401 675 339 743 l 128 779 l 115 717 l 207 701 b 326 547 282 689 326 647 l 326 64 l 72 64 l 72 0 z "},"ס":{"ha":765,"x_min":0,"x_max":0,"o":"m 692 443 l 690 483 b 436 764 685 651 596 764 l 72 764 l 79 701 l 165 -14 b 692 443 449 0 704 103 z m 233 58 l 156 701 l 429 701 b 617 475 553 701 617 600 l 617 443 b 233 58 628 146 421 76 z "},"ע":{"ha":717,"x_min":0,"x_max":0,"o":"m 563 764 b 368 97 563 339 556 172 l 189 764 l 113 764 l 300 76 b 268 69 290 74 279 72 l 46 26 l 57 -35 l 267 7 b 639 764 611 75 638 244 l 563 764 z "},"ף":{"ha":753,"x_min":0,"x_max":0,"o":"m 376 764 l 146 764 l 104 563 b 224 299 72 408 108 326 l 247 351 b 176 561 168 376 150 440 l 204 701 l 365 701 b 572 424 506 701 572 608 l 572 -278 l 649 -278 l 649 424 b 376 764 647 651 549 764 z "},"פ":{"ha":743,"x_min":0,"x_max":0,"o":"m 115 0 l 335 0 b 661 346 508 0 661 81 l 661 424 b 386 764 661 651 558 764 l 158 764 l 106 539 b 265 275 75 385 114 297 l 285 333 b 176 535 169 354 150 415 l 217 701 l 376 701 b 586 424 518 701 586 608 l 586 343 b 325 64 586 122 467 64 l 115 64 l 115 0 z "},"ץ":{"ha":615,"x_min":0,"x_max":0,"o":"m 582 764 l 508 764 l 314 264 l 146 764 l 71 764 l 418 -278 l 496 -278 l 346 168 l 582 764 z "},"צ":{"ha":697,"x_min":0,"x_max":0,"o":"m 424 346 l 611 764 l 533 764 l 382 415 l 171 764 l 92 764 l 515 64 l 58 64 l 58 0 l 554 0 l 633 0 l 424 346 z "},"ק":{"ha":743,"x_min":0,"x_max":0,"o":"m 303 0 b 638 403 475 10 624 118 l 663 706 l 667 764 l 81 764 l 81 701 l 585 701 l 560 393 b 294 63 542 124 424 79 l 303 0 z m 88 -278 l 164 -278 l 164 492 l 99 492 l 88 397 l 88 -278 z "},"ר":{"ha":649,"x_min":0,"x_max":0,"o":"m 469 0 l 546 0 l 546 507 b 314 764 546 694 453 764 l 64 764 l 64 701 l 301 701 b 469 508 401 701 469 653 l 469 0 z "},"ש":{"ha":853,"x_min":0,"x_max":0,"o":"m 769 575 l 768 764 l 693 764 l 694 574 b 232 56 697 225 525 75 l 204 289 b 461 682 382 375 454 475 l 461 761 l 388 761 l 388 681 b 196 353 382 499 331 426 l 146 764 l 72 764 l 168 -14 b 769 575 565 -6 772 179 z "},"ת":{"ha":826,"x_min":0,"x_max":0,"o":"m 42 -18 b 258 221 194 -4 258 72 l 258 701 l 483 701 b 653 508 585 701 653 653 l 653 0 l 728 0 l 728 507 b 497 764 728 694 636 764 l 183 764 l 183 214 b 33 39 185 108 147 49 l 42 -18 z "},"שׁ":{"ha":853,"x_min":0,"x_max":0,"o":"m 725 864 b 764 908 749 864 764 886 b 725 950 764 928 749 950 b 685 908 701 950 685 928 b 725 864 685 886 701 864 z m 769 575 l 768 764 l 693 764 l 694 574 b 232 56 697 225 525 75 l 204 289 b 461 682 382 375 454 475 l 461 761 l 388 761 l 388 681 b 196 353 382 499 331 426 l 146 764 l 72 764 l 168 -14 b 769 575 565 -6 772 179 z "},"שׂ":{"ha":853,"x_min":0,"x_max":0,"o":"m 133 908 b 94 950 133 928 118 950 b 54 908 71 950 54 928 b 94 864 54 886 71 864 b 133 908 118 864 133 886 z m 769 575 l 768 764 l 693 764 l 694 574 b 232 56 697 225 525 75 l 204 289 b 461 682 382 375 454 475 l 461 761 l 388 761 l 388 681 b 196 353 382 499 331 426 l 146 764 l 72 764 l 168 -14 b 769 575 565 -6 772 179 z "},"שּׁ":{"ha":853,"x_min":0,"x_max":0,"o":"m 725 864 b 764 908 749 864 764 886 b 725 950 764 928 749 950 b 685 908 701 950 685 928 b 725 864 685 886 701 864 z m 769 575 l 768 764 l 693 764 l 694 574 b 232 56 697 225 525 75 l 204 289 b 461 682 382 375 454 475 l 461 761 l 388 761 l 388 681 b 196 353 382 499 331 426 l 146 764 l 72 764 l 168 -14 b 769 575 565 -6 772 179 z m 515 358 b 554 401 539 358 554 378 b 515 443 554 422 539 443 b 475 401 492 443 475 421 b 515 358 475 378 492 358 z "},"שּׂ":{"ha":853,"x_min":0,"x_max":0,"o":"m 133 908 b 94 950 133 928 118 950 b 54 908 71 950 54 928 b 94 864 54 886 71 864 b 133 908 118 864 133 886 z m 769 575 l 768 764 l 693 764 l 694 574 b 232 56 697 225 525 75 l 204 289 b 461 682 382 375 454 475 l 461 761 l 388 761 l 388 681 b 196 353 382 499 331 426 l 146 764 l 72 764 l 168 -14 b 769 575 565 -6 772 179 z m 515 358 b 554 401 539 358 554 378 b 515 443 554 422 539 443 b 475 401 492 443 475 421 b 515 358 475 378 492 358 z "},"אַ":{"ha":751,"x_min":0,"x_max":0,"o":"m 699 0 l 501 290 l 656 764 l 581 764 l 488 468 l 457 357 l 317 565 l 190 764 l 111 764 l 238 565 l 201 478 l 50 0 l 124 0 l 281 497 l 615 0 l 699 0 z m 486 -83 l 269 -83 l 269 -131 l 486 -131 l 486 -83 z "},"אָ":{"ha":751,"x_min":0,"x_max":0,"o":"m 699 0 l 501 290 l 656 764 l 581 764 l 488 468 l 457 357 l 317 565 l 190 764 l 111 764 l 238 565 l 201 478 l 50 0 l 124 0 l 281 497 l 615 0 l 699 0 z m 486 -83 l 269 -83 l 269 -131 l 363 -131 l 351 -269 l 403 -269 l 392 -131 l 486 -131 l 486 -83 z "},"אּ":{"ha":751,"x_min":0,"x_max":0,"o":"m 699 0 l 501 290 l 656 764 l 581 764 l 488 468 l 457 357 l 317 565 l 190 764 l 111 764 l 238 565 l 201 478 l 50 0 l 124 0 l 281 497 l 615 0 l 699 0 z m 333 221 b 293 179 310 221 293 199 b 333 136 293 156 310 136 b 372 179 357 136 372 156 b 333 221 372 200 357 221 z "},"בּ":{"ha":724,"x_min":0,"x_max":0,"o":"m 564 64 l 564 507 b 333 764 564 694 472 764 l 78 764 l 78 701 l 319 701 b 489 508 421 701 489 653 l 489 64 l 78 64 l 78 0 l 489 0 l 665 0 l 665 64 l 564 64 z m 301 414 b 263 456 301 435 286 456 b 222 414 239 456 222 433 b 263 371 222 390 239 371 b 301 414 286 371 301 390 z "},"גּ":{"ha":493,"x_min":0,"x_max":0,"o":"m 426 0 l 375 281 l 375 551 b 235 763 375 679 344 743 l 133 779 l 122 717 l 213 703 b 300 547 286 690 300 640 l 300 282 b 40 46 242 157 158 89 l 68 -18 b 315 201 176 21 260 89 l 353 0 l 426 0 z m 129 375 b 168 418 153 375 168 394 b 129 460 168 439 153 460 b 89 418 106 460 89 438 b 129 375 89 394 106 375 z "},"דּ":{"ha":740,"x_min":0,"x_max":0,"o":"m 444 0 l 519 0 l 519 539 b 556 701 519 589 526 653 l 657 701 l 657 764 l 82 764 l 82 701 l 482 701 b 444 539 457 663 444 606 l 444 0 z m 258 456 b 218 414 235 456 218 433 b 258 371 218 390 235 371 b 297 414 282 371 297 390 b 258 456 297 435 282 456 z "},"הּ":{"ha":746,"x_min":0,"x_max":0,"o":"m 568 0 l 644 0 l 644 507 b 413 764 644 694 551 764 l 88 764 l 88 701 l 400 701 b 568 508 500 701 568 653 l 568 0 z m 88 0 l 164 0 l 164 467 l 99 467 l 88 374 l 88 0 z m 363 456 b 322 414 339 456 322 433 b 363 371 322 390 339 371 b 401 414 386 371 401 390 b 363 456 401 435 386 456 z "},"וּ":{"ha":296,"x_min":0,"x_max":0,"o":"m 115 0 l 192 0 l 192 601 l 172 764 l 97 764 l 115 601 l 115 0 z m -1 456 b -42 414 -25 456 -42 433 b -1 371 -42 390 -25 371 b 38 414 22 371 38 390 b -1 456 38 435 22 456 z "},"זּ":{"ha":494,"x_min":0,"x_max":0,"o":"m 189 0 l 265 0 l 265 539 b 300 701 265 589 271 653 l 411 701 l 411 764 l 83 764 l 83 701 l 226 701 b 189 539 203 663 189 606 l 189 0 z m 76 456 b 36 414 53 456 36 433 b 76 371 36 390 53 371 b 115 414 100 371 115 390 b 76 456 115 435 100 456 z "},"טּ":{"ha":751,"x_min":0,"x_max":0,"o":"m 165 -14 b 682 469 451 0 694 131 l 681 508 b 426 769 675 678 582 758 l 351 775 l 346 711 l 415 707 b 608 496 546 699 608 619 l 608 464 b 233 58 619 171 421 78 l 149 764 l 72 764 l 165 -14 z m 386 460 b 346 418 363 460 346 438 b 386 375 346 394 363 375 b 425 418 410 375 425 394 b 386 460 425 439 410 460 z "},"יּ":{"ha":296,"x_min":0,"x_max":0,"o":"m 115 292 l 190 310 l 192 397 l 192 601 l 172 764 l 97 764 l 115 601 l 115 292 z m 11 581 b -29 539 -12 581 -29 558 b 11 496 -29 515 -12 496 b 50 539 35 496 50 515 b 11 581 50 560 35 581 z "},"ךּ":{"ha":694,"x_min":0,"x_max":0,"o":"m 515 -278 l 590 -278 l 590 507 b 360 764 590 694 499 764 l 83 764 l 83 701 l 346 701 b 515 508 447 701 515 653 l 515 -278 z m 267 456 b 226 414 243 456 226 433 b 267 371 226 390 243 371 b 306 414 290 371 306 390 b 267 456 306 435 290 456 z "},"כּ":{"ha":649,"x_min":0,"x_max":0,"o":"m 69 0 l 251 0 b 565 343 449 0 565 114 l 565 421 b 251 764 565 650 449 764 l 69 764 l 69 701 l 240 701 b 489 424 406 701 489 608 l 489 342 b 240 64 489 156 406 64 l 69 64 l 69 0 z m 247 444 b 207 403 224 444 207 422 b 247 360 207 379 224 360 b 286 403 271 360 286 379 b 247 444 286 424 271 444 z "},"לּ":{"ha":651,"x_min":0,"x_max":0,"o":"m 136 764 l 136 996 l 64 996 l 64 701 l 506 701 l 232 0 l 307 0 l 582 697 l 582 764 l 136 764 z m 185 456 b 144 414 161 456 144 433 b 185 371 144 390 161 371 b 224 414 208 371 224 390 b 185 456 224 435 208 456 z "},"מּ":{"ha":822,"x_min":0,"x_max":0,"o":"m 747 415 b 467 769 740 688 614 769 b 238 594 369 769 276 717 l 161 764 l 83 764 l 190 542 l 85 0 l 161 0 l 263 540 b 460 707 288 628 343 707 b 674 415 574 707 668 640 b 335 60 681 133 571 7 l 326 -3 b 747 415 601 -61 756 89 z m 490 414 b 451 456 490 435 475 456 b 411 414 428 456 411 433 b 451 371 411 390 428 371 b 490 414 475 371 490 390 z "},"נּ":{"ha":504,"x_min":0,"x_max":0,"o":"m 72 0 l 401 0 l 401 549 b 229 763 401 675 339 743 l 128 779 l 115 717 l 207 701 b 326 547 282 689 326 647 l 326 64 l 72 64 l 72 0 z m 147 456 b 107 414 124 456 107 433 b 147 371 107 390 124 371 b 186 414 171 371 186 390 b 147 456 186 435 171 456 z "},"סּ":{"ha":765,"x_min":0,"x_max":0,"o":"m 692 443 l 690 483 b 436 764 685 651 596 764 l 72 764 l 79 701 l 165 -14 b 692 443 449 0 704 103 z m 233 58 l 156 701 l 429 701 b 617 475 553 701 617 600 l 617 443 b 233 58 628 146 421 76 z m 383 458 b 343 417 360 458 343 436 b 383 374 343 393 360 374 b 422 417 407 374 422 393 b 383 458 422 438 407 458 z "},"ףּ":{"ha":753,"x_min":0,"x_max":0,"o":"m 376 764 l 146 764 l 104 563 b 224 299 72 408 108 326 l 247 351 b 176 561 168 376 150 440 l 204 701 l 365 701 b 572 424 506 701 572 608 l 572 -278 l 649 -278 l 649 424 b 376 764 647 651 549 764 z m 400 456 b 360 414 376 456 360 433 b 400 371 360 390 376 371 b 439 414 424 371 439 390 b 400 456 439 435 424 456 z "},"פּ":{"ha":743,"x_min":0,"x_max":0,"o":"m 115 0 l 335 0 b 661 346 508 0 661 81 l 661 424 b 386 764 661 651 558 764 l 158 764 l 106 539 b 265 275 75 385 114 297 l 285 333 b 176 535 169 354 150 415 l 217 701 l 376 701 b 586 424 518 701 586 608 l 586 343 b 325 64 586 122 467 64 l 115 64 l 115 0 z m 396 454 b 356 413 372 454 356 432 b 396 369 356 389 372 369 b 435 413 419 369 435 389 b 396 454 435 433 419 454 z "},"צּ":{"ha":697,"x_min":0,"x_max":0,"o":"m 424 346 l 611 764 l 533 764 l 382 415 l 171 764 l 92 764 l 515 64 l 58 64 l 58 0 l 554 0 l 633 0 l 424 346 z m 253 247 b 214 289 253 268 238 289 b 174 247 190 289 174 267 b 214 204 174 224 190 204 b 253 247 238 204 253 224 z "},"קּ":{"ha":743,"x_min":0,"x_max":0,"o":"m 303 0 b 638 403 475 10 624 118 l 663 706 l 667 764 l 81 764 l 81 701 l 585 701 l 560 393 b 294 63 542 124 424 79 l 303 0 z m 88 -278 l 164 -278 l 164 492 l 99 492 l 88 397 l 88 -278 z m 375 460 b 335 418 351 460 335 438 b 375 375 335 394 351 375 b 414 418 399 375 414 394 b 375 460 414 439 399 460 z "},"רּ":{"ha":649,"x_min":0,"x_max":0,"o":"m 469 0 l 546 0 l 546 507 b 314 764 546 694 453 764 l 64 764 l 64 701 l 301 701 b 469 508 401 701 469 653 l 469 0 z m 225 456 b 185 414 201 456 185 433 b 225 371 185 390 201 371 b 264 414 249 371 264 390 b 225 456 264 435 249 456 z "},"שּ":{"ha":853,"x_min":0,"x_max":0,"o":"m 769 575 l 768 764 l 693 764 l 694 574 b 232 56 697 225 525 75 l 204 289 b 461 682 382 375 454 475 l 461 761 l 388 761 l 388 681 b 196 353 382 499 331 426 l 146 764 l 72 764 l 168 -14 b 769 575 565 -6 772 179 z m 515 358 b 554 401 539 358 554 378 b 515 443 554 422 539 443 b 475 401 492 443 475 421 b 515 358 475 378 492 358 z "},"תּ":{"ha":826,"x_min":0,"x_max":0,"o":"m 42 -18 b 258 221 194 -4 258 72 l 258 701 l 483 701 b 653 508 585 701 653 653 l 653 0 l 728 0 l 728 507 b 497 764 728 694 636 764 l 183 764 l 183 214 b 33 39 185 108 147 49 l 42 -18 z m 450 456 b 410 414 426 456 410 433 b 450 371 410 390 426 371 b 489 414 474 371 489 390 b 450 456 489 435 474 456 z "},"וֹ":{"ha":296,"x_min":0,"x_max":0,"o":"m 118 936 b 78 894 94 936 78 915 b 118 851 78 871 94 851 b 157 894 142 851 157 871 b 118 936 157 917 142 936 z m 115 0 l 192 0 l 192 601 l 172 764 l 97 764 l 115 601 l 115 0 z "},"ℊ":{"ha":761,"x_min":0,"x_max":0,"o":"m 360 -315 b 635 -53 533 -315 635 -212 l 635 668 l 572 668 l 565 607 l 563 607 b 368 685 503 656 447 685 b 72 342 210 685 72 553 b 349 1 72 124 182 1 b 564 103 436 1 510 49 l 563 -46 b 360 -256 561 -175 493 -256 b 154 -187 290 -256 221 -236 l 124 -242 b 360 -315 190 -287 271 -315 z m 361 63 b 147 343 224 63 147 175 b 374 624 147 503 246 624 b 563 540 438 624 494 600 l 563 169 b 361 63 494 100 432 63 z "},"⁄":{"ha":113,"x_min":0,"x_max":0,"o":"m -229 -17 l -172 -17 l 338 931 l 281 931 l -229 -17 z "},"½":{"ha":1097,"x_min":0,"x_max":0,"o":"m 222 -17 l 281 -17 l 790 931 l 732 931 l 222 -17 z m 221 382 l 279 382 l 279 924 l 229 924 b 104 869 194 897 160 881 l 104 828 l 221 828 l 221 382 z m 671 0 l 1028 0 l 1028 53 l 768 53 b 997 386 903 186 997 275 b 826 558 997 501 928 558 b 657 457 757 558 692 513 l 696 422 b 819 507 726 468 771 507 b 936 379 890 507 936 457 b 671 38 936 290 853 206 l 671 0 z "},"¼":{"ha":1074,"x_min":0,"x_max":0,"o":"m 761 931 l 251 -17 l 308 -17 l 818 931 l 761 931 z m 279 382 l 279 924 l 229 924 b 104 869 194 897 160 881 l 104 828 l 221 828 l 221 382 l 279 382 z m 1015 203 l 935 203 l 935 542 l 875 542 l 633 188 l 633 156 l 878 156 l 878 0 l 935 0 l 935 156 l 1015 156 l 1015 203 z m 704 203 l 879 467 l 885 467 l 878 321 l 878 203 l 704 203 z "},"¾":{"ha":1097,"x_min":0,"x_max":0,"o":"m 431 525 b 306 660 431 600 371 647 b 408 796 365 683 408 729 b 243 939 408 886 333 939 b 76 853 172 939 117 903 l 115 818 b 236 889 149 860 193 889 b 347 790 304 889 347 849 b 183 678 347 729 288 678 l 183 635 b 369 526 299 635 369 597 b 246 415 369 456 314 415 b 99 501 186 415 132 450 l 54 468 b 247 365 93 413 161 365 b 431 525 349 365 431 425 z m 819 931 l 310 -17 l 368 -17 l 878 931 l 819 931 z m 1039 203 l 958 203 l 958 542 l 899 542 l 657 188 l 657 156 l 901 156 l 901 0 l 958 0 l 958 156 l 1039 156 l 1039 203 z m 728 203 l 903 467 l 908 467 l 901 321 l 901 203 l 728 203 z "},"*":{"ha":554,"x_min":0,"x_max":0,"o":"m 185 631 l 278 747 l 369 631 l 410 661 l 333 785 l 461 836 l 446 881 l 311 847 l 301 989 l 253 989 l 243 846 l 108 881 l 93 836 l 221 785 l 144 661 l 185 631 z "},"\\":{"ha":494,"x_min":0,"x_max":0,"o":"m 424 -222 l 482 -222 l 68 986 l 10 986 l 424 -222 z "},"·":{"ha":313,"x_min":0,"x_max":0,"o":"m 156 381 b 219 447 189 381 219 407 b 156 517 219 490 189 517 b 93 447 122 517 93 490 b 156 381 93 407 122 381 z "},"•":{"ha":396,"x_min":0,"x_max":0,"o":"m 199 211 b 340 367 271 211 340 271 b 199 522 340 461 271 522 b 56 367 125 522 56 461 b 199 211 56 271 125 211 z "},":":{"ha":313,"x_min":0,"x_max":0,"o":"m 156 508 b 219 575 189 508 219 535 b 156 644 219 618 189 644 b 93 575 122 644 93 618 b 156 508 93 535 122 508 z m 156 -17 b 219 50 189 -17 219 10 b 156 119 219 93 189 119 b 93 50 122 119 93 93 b 156 -17 93 10 122 -17 z "},",":{"ha":313,"x_min":0,"x_max":0,"o":"m 161 119 b 97 57 128 119 97 97 b 161 -6 97 15 126 -6 b 176 -4 167 -6 171 -6 b 67 -172 175 -82 132 -139 l 88 -219 b 238 13 176 -175 238 -92 b 161 119 238 78 208 119 z "},"…":{"ha":1388,"x_min":0,"x_max":0,"o":"m 231 -17 b 294 50 264 -17 294 10 b 231 119 294 93 264 119 b 168 50 197 119 168 93 b 231 -17 168 10 197 -17 z m 694 -17 b 758 50 728 -17 758 10 b 694 119 758 93 728 119 b 632 50 661 119 632 93 b 694 -17 632 10 661 -17 z m 1158 -17 b 1222 50 1192 -17 1222 10 b 1158 119 1222 93 1192 119 b 1096 50 1125 119 1096 93 b 1158 -17 1096 10 1125 -17 z "},"!":{"ha":368,"x_min":0,"x_max":0,"o":"m 158 254 l 210 254 l 219 826 l 221 931 l 147 931 l 149 826 l 158 254 z m 183 -17 b 247 50 217 -17 247 10 b 183 119 247 93 217 119 b 121 50 150 119 121 93 b 183 -17 121 10 150 -17 z "},"¡":{"ha":368,"x_min":0,"x_max":0,"o":"m 183 550 b 247 618 217 550 247 576 b 183 685 247 658 217 685 b 121 618 150 685 121 658 b 183 550 121 576 150 550 z m 147 -262 l 221 -262 l 219 -158 l 210 414 l 158 414 l 149 -158 l 147 -262 z "},"#":{"ha":669,"x_min":0,"x_max":0,"o":"m 128 0 l 182 0 l 217 294 l 421 294 l 385 0 l 439 0 l 474 294 l 600 294 l 600 350 l 481 350 l 510 581 l 628 581 l 628 636 l 515 636 l 550 903 l 496 903 l 461 636 l 258 636 l 293 903 l 240 903 l 204 636 l 78 636 l 78 581 l 200 581 l 171 350 l 50 350 l 50 294 l 164 294 l 128 0 z m 225 350 l 253 581 l 457 581 l 428 350 l 225 350 z "},".":{"ha":313,"x_min":0,"x_max":0,"o":"m 156 -17 b 219 50 189 -17 219 10 b 156 119 219 93 189 119 b 93 50 122 119 93 93 b 156 -17 93 10 122 -17 z "},"?":{"ha":565,"x_min":0,"x_max":0,"o":"m 225 254 l 290 254 b 494 733 264 463 494 546 b 276 947 494 857 413 947 b 51 838 179 947 107 899 l 94 799 b 269 886 140 853 204 886 b 424 729 375 886 424 811 b 225 254 424 563 196 482 z m 263 -17 b 325 50 296 -17 325 10 b 263 119 325 93 296 119 b 199 50 229 119 199 93 b 263 -17 199 10 229 -17 z "},"¿":{"ha":565,"x_min":0,"x_max":0,"o":"m 303 550 b 367 618 336 550 367 576 b 303 685 367 658 336 685 b 239 618 269 685 239 658 b 303 550 239 576 269 550 z m 288 -279 b 514 -169 385 -279 458 -231 l 471 -131 b 294 -217 425 -185 361 -217 b 142 -60 190 -217 142 -143 b 339 414 142 107 369 188 l 275 414 b 69 -65 301 207 69 122 b 288 -279 69 -187 151 -279 z "},"\"":{"ha":518,"x_min":0,"x_max":0,"o":"m 131 651 l 181 651 l 194 860 l 196 963 l 114 963 l 115 860 l 131 651 z m 336 651 l 386 651 l 400 860 l 401 963 l 319 963 l 321 860 l 336 651 z "},"'":{"ha":313,"x_min":0,"x_max":0,"o":"m 131 651 l 181 651 l 194 860 l 196 963 l 114 963 l 115 860 l 131 651 z "},";":{"ha":313,"x_min":0,"x_max":0,"o":"m 156 508 b 219 575 189 508 219 535 b 156 644 219 618 189 644 b 93 575 122 644 93 618 b 156 508 93 535 122 508 z m 161 119 b 97 57 128 119 97 97 b 161 -6 97 15 126 -6 b 176 -4 167 -6 171 -6 b 67 -172 175 -82 132 -139 l 88 -219 b 238 13 176 -175 238 -92 b 161 119 238 78 208 119 z "},"/":{"ha":494,"x_min":0,"x_max":0,"o":"m 13 -222 l 71 -222 l 485 986 l 426 986 l 13 -222 z "},"_":{"ha":694,"x_min":0,"x_max":0,"o":"m 17 -165 l 678 -165 l 678 -108 l 17 -108 l 17 -165 z "},"{":{"ha":394,"x_min":0,"x_max":0,"o":"m 311 -211 l 361 -211 l 361 -167 l 321 -167 b 217 -26 238 -167 217 -122 b 224 238 217 63 224 139 b 151 383 224 318 207 367 l 151 389 b 224 535 207 406 224 451 b 217 799 224 633 217 710 b 321 939 217 894 238 939 l 361 939 l 361 983 l 311 983 b 157 804 207 983 157 944 b 168 521 157 703 168 618 b 49 411 168 465 144 411 l 49 361 b 168 250 144 361 168 307 b 157 -32 168 154 157 69 b 311 -211 157 -174 207 -211 z "},"}":{"ha":394,"x_min":0,"x_max":0,"o":"m 32 -211 l 82 -211 b 238 -32 186 -211 238 -174 b 225 250 238 69 225 154 b 344 361 225 307 249 361 l 344 411 b 225 521 249 411 225 465 b 238 804 225 618 238 703 b 82 983 238 944 186 983 l 32 983 l 32 939 l 74 939 b 178 799 157 939 178 894 b 169 535 178 710 169 633 b 243 389 169 451 188 406 l 243 383 b 169 238 188 367 169 318 b 178 -26 169 139 178 63 b 74 -167 178 -122 157 -167 l 32 -167 l 32 -211 z "},"[":{"ha":394,"x_min":0,"x_max":0,"o":"m 136 -211 l 361 -211 l 361 -167 l 190 -167 l 190 939 l 361 939 l 361 983 l 136 983 l 136 -211 z "},"]":{"ha":394,"x_min":0,"x_max":0,"o":"m 32 -211 l 258 -211 l 258 983 l 32 983 l 32 939 l 203 939 l 203 -167 l 32 -167 l 32 -211 z "},"(":{"ha":394,"x_min":0,"x_max":0,"o":"m 304 -243 l 347 -219 b 182 386 238 -43 182 168 b 347 992 182 604 238 817 l 304 1015 b 121 386 189 831 121 631 b 304 -243 121 142 189 -58 z "},")":{"ha":394,"x_min":0,"x_max":0,"o":"m 90 -243 b 274 386 204 -58 274 142 b 90 1015 274 631 204 831 l 46 992 b 211 386 156 817 211 604 b 46 -219 211 168 156 -43 l 90 -243 z "},"—":{"ha":1111,"x_min":0,"x_max":0,"o":"m 57 321 l 1054 321 l 1054 376 l 57 376 l 57 321 z "},"–":{"ha":667,"x_min":0,"x_max":0,"o":"m 57 321 l 610 321 l 610 376 l 57 376 l 57 321 z "},"-":{"ha":418,"x_min":0,"x_max":0,"o":"m 57 317 l 364 317 l 364 378 l 57 378 l 57 317 z "},"‐":{"ha":418,"x_min":0,"x_max":0,"o":"m 57 317 l 364 317 l 364 378 l 57 378 l 57 317 z "},"­":{"ha":418,"x_min":0,"x_max":0,"o":"m 57 317 l 364 317 l 364 378 l 57 378 l 57 317 z "},"«":{"ha":563,"x_min":0,"x_max":0,"o":"m 251 99 l 288 128 l 118 350 l 288 571 l 251 601 l 60 379 l 60 321 l 251 99 z m 451 99 l 488 128 l 318 350 l 488 571 l 451 601 l 260 379 l 260 321 l 451 99 z "},"»":{"ha":563,"x_min":0,"x_max":0,"o":"m 111 99 l 303 321 l 303 379 l 111 601 l 75 571 l 244 350 l 75 128 l 111 99 z m 311 99 l 503 321 l 503 379 l 311 601 l 275 571 l 444 350 l 275 128 l 311 99 z "},"‹":{"ha":363,"x_min":0,"x_max":0,"o":"m 251 99 l 288 128 l 118 350 l 288 571 l 251 601 l 60 379 l 60 321 l 251 99 z "},"›":{"ha":363,"x_min":0,"x_max":0,"o":"m 111 99 l 303 321 l 303 379 l 111 601 l 75 571 l 244 350 l 75 128 l 111 99 z "},"„":{"ha":518,"x_min":0,"x_max":0,"o":"m 165 135 b 107 76 132 135 107 114 b 165 21 107 40 136 21 b 178 22 169 21 174 21 b 82 -149 178 -54 144 -101 l 108 -186 b 232 36 186 -135 232 -65 b 165 135 232 100 206 135 z m 371 135 b 313 76 338 135 313 114 b 371 21 313 40 342 21 b 383 22 375 21 379 21 b 288 -149 383 -54 350 -101 l 314 -186 b 438 36 392 -135 438 -65 b 371 135 438 100 411 135 z "},"“":{"ha":518,"x_min":0,"x_max":0,"o":"m 231 938 l 204 975 b 79 753 125 924 79 854 b 147 654 79 689 106 654 b 204 713 181 654 204 675 b 147 768 204 750 175 768 b 135 767 143 768 139 768 b 231 938 135 844 168 890 z m 353 768 b 340 767 349 768 344 768 b 436 938 340 844 374 890 l 410 975 b 285 753 331 924 285 854 b 353 654 285 689 311 654 b 410 713 386 654 410 675 b 353 768 410 750 381 768 z "},"”":{"ha":518,"x_min":0,"x_max":0,"o":"m 165 971 b 107 913 132 971 107 950 b 165 857 107 876 136 857 b 178 858 169 857 174 857 b 82 688 178 782 144 735 l 108 650 b 232 872 186 701 232 771 b 165 971 232 936 206 971 z m 371 971 b 313 913 338 971 313 950 b 371 857 313 876 342 857 b 383 858 375 857 379 857 b 288 688 383 782 350 735 l 314 650 b 438 872 392 701 438 771 b 371 971 438 936 411 971 z "},"‘":{"ha":313,"x_min":0,"x_max":0,"o":"m 147 768 b 135 767 143 768 139 768 b 231 938 135 844 168 890 l 204 975 b 79 753 125 924 79 854 b 147 654 79 689 106 654 b 204 713 181 654 204 675 b 147 768 204 750 175 768 z "},"’":{"ha":313,"x_min":0,"x_max":0,"o":"m 165 971 b 107 913 132 971 107 950 b 165 857 107 876 136 857 b 178 858 169 857 174 857 b 82 688 178 782 144 735 l 108 650 b 232 872 186 701 232 771 b 165 971 232 936 206 971 z "},"‚":{"ha":313,"x_min":0,"x_max":0,"o":"m 165 135 b 107 76 132 135 107 114 b 165 21 107 40 136 21 b 178 22 169 21 174 21 b 82 -149 178 -54 144 -101 l 108 -186 b 232 36 186 -135 232 -65 b 165 135 232 100 206 135 z "},"׀":{"ha":286,"x_min":0,"x_max":0,"o":"m 115 -139 l 171 -139 l 171 896 l 115 896 l 115 -139 z "},"׃":{"ha":360,"x_min":0,"x_max":0,"o":"m 181 503 l 250 574 l 181 644 l 110 574 l 181 503 z m 181 24 l 250 94 l 181 165 l 110 94 l 181 24 z "},"׳":{"ha":269,"x_min":0,"x_max":0,"o":"m 113 703 l 244 928 l 189 957 l 69 724 l 113 703 z "},"״":{"ha":508,"x_min":0,"x_max":0,"o":"m 113 703 l 244 928 l 189 957 l 69 724 l 113 703 z m 303 703 l 435 928 l 381 957 l 260 724 l 303 703 z "},"־":{"ha":432,"x_min":0,"x_max":0,"o":"m 63 701 l 369 701 l 369 764 l 63 764 l 63 701 z "}," ":{"ha":278,"x_min":0,"x_max":0,"o":""}," ":{"ha":278,"x_min":0,"x_max":0,"o":""},"‎":{"ha":0,"x_min":0,"x_max":0,"o":"m 54 1065 l 200 1215 l 54 1367 l 19 1329 l 107 1242 l -158 1242 l -158 1192 l 107 1192 l 19 1100 l 54 1065 z "},"‏":{"ha":0,"x_min":0,"x_max":0,"o":"m -54 1067 l -19 1100 l -106 1192 l 161 1192 l 161 1242 l -107 1242 l -19 1331 l -54 1367 l -200 1215 l -54 1067 z "},"‭":{"ha":0,"x_min":0,"x_max":0,"o":"m -43 1065 l 101 1215 l -43 1367 l -79 1329 l 6 1242 l -217 1242 l -217 1192 l 8 1192 l -79 1100 l -43 1065 z m 92 1065 l 238 1215 l 92 1367 l 57 1329 l 171 1215 l 57 1100 l 92 1065 z "},"‮":{"ha":0,"x_min":0,"x_max":0,"o":"m -92 1118 l -57 1154 l -168 1269 l -57 1382 l -92 1418 l -237 1269 l -92 1118 z m 43 1118 l 82 1154 l -6 1243 l 218 1243 l 218 1290 l -6 1290 l 82 1382 l 43 1418 l -99 1269 l 43 1118 z "},"¢":{"ha":669,"x_min":0,"x_max":0,"o":"m 610 197 l 574 243 b 408 171 531 204 475 174 l 408 694 b 557 628 467 692 515 665 l 594 674 b 408 756 550 714 493 753 l 408 907 l 356 907 l 356 753 b 86 432 207 735 86 624 b 356 110 86 240 199 126 l 356 -40 l 408 -40 l 408 108 b 610 197 488 113 554 149 z m 158 432 b 356 690 158 572 240 671 l 356 174 b 158 432 235 193 158 292 z "},"¤":{"ha":669,"x_min":0,"x_max":0,"o":"m 82 156 l 174 250 b 335 190 218 211 275 190 b 494 250 393 190 451 211 l 588 156 l 628 199 l 538 292 b 590 456 569 336 590 392 b 538 624 590 522 569 579 l 628 718 l 588 761 l 494 665 b 335 725 450 703 393 725 b 175 665 275 725 218 703 l 82 761 l 42 718 l 132 624 b 81 456 99 579 81 522 b 132 292 81 392 99 336 l 42 199 l 82 156 z m 335 247 b 150 456 233 247 150 332 b 335 667 150 581 233 667 b 521 456 436 667 521 581 b 335 247 521 332 436 247 z "},"$":{"ha":669,"x_min":0,"x_max":0,"o":"m 586 215 b 188 688 586 529 188 453 b 346 843 188 776 251 843 b 522 760 429 843 471 811 l 564 803 b 372 903 515 854 461 896 l 372 1040 l 314 1040 l 314 903 b 117 683 199 889 117 801 b 514 210 117 404 514 475 b 339 46 514 113 454 46 b 117 142 246 46 171 93 l 81 92 b 314 -15 136 40 219 -8 l 314 -153 l 372 -153 l 372 -15 b 586 215 497 -1 586 83 z "},"€":{"ha":669,"x_min":0,"x_max":0,"o":"m 617 153 b 435 44 564 81 511 44 b 200 339 304 44 222 157 l 522 339 l 522 389 l 194 389 b 193 446 193 407 193 426 b 194 493 193 463 193 478 l 578 493 l 578 543 l 199 543 b 450 844 221 729 308 844 b 604 753 514 844 564 807 l 650 796 b 451 904 607 854 535 904 b 122 543 272 904 149 768 l 32 538 l 32 493 l 118 493 b 117 446 117 478 117 463 b 118 389 117 426 117 407 l 32 383 l 32 339 l 124 339 b 431 -17 151 118 268 -17 b 663 114 533 -17 604 32 l 617 153 z "},"ƒ":{"ha":669,"x_min":0,"x_max":0,"o":"m 518 869 b 601 849 556 869 581 858 l 619 907 b 517 931 594 918 561 931 b 308 650 386 931 328 825 l 299 564 l 257 564 l 163 558 l 163 504 l 293 504 l 254 151 b 108 -75 240 19 204 -75 b 35 -58 82 -75 57 -69 l 17 -114 b 108 -136 40 -128 72 -136 b 322 143 247 -136 304 -28 l 363 504 l 557 504 l 557 564 l 369 564 l 379 654 b 518 869 390 764 424 869 z "},"₪":{"ha":971,"x_min":0,"x_max":0,"o":"m 100 0 l 176 0 l 176 701 l 397 701 b 542 485 508 701 542 626 l 542 265 l 607 265 l 607 483 b 400 764 607 671 547 764 l 100 764 l 100 0 z m 318 0 b 886 574 742 7 889 172 l 885 764 l 808 764 l 810 574 b 383 69 813 232 726 86 l 383 507 l 318 507 l 318 0 z "},"£":{"ha":669,"x_min":0,"x_max":0,"o":"m 194 63 l 194 68 b 292 308 257 131 292 197 b 282 406 292 343 288 375 l 497 406 l 497 460 l 269 460 b 228 664 251 529 228 593 b 397 843 228 764 286 843 b 553 761 468 843 515 807 l 599 804 b 396 904 556 858 492 904 b 156 664 249 904 156 811 b 199 460 156 593 179 528 l 167 460 l 75 456 l 75 406 l 213 406 b 225 310 219 374 225 343 b 78 43 225 203 179 100 l 78 0 l 600 0 l 600 63 l 194 63 z "},"¥":{"ha":669,"x_min":0,"x_max":0,"o":"m 299 0 l 369 0 l 369 228 l 601 228 l 601 278 l 369 278 l 369 375 l 601 375 l 601 425 l 392 425 l 631 888 l 557 888 l 431 625 b 338 435 399 564 372 503 l 332 435 b 243 625 301 503 272 564 l 117 888 l 39 888 l 276 425 l 68 425 l 68 375 l 299 375 l 299 278 l 68 278 l 68 228 l 299 228 l 299 0 z "},"≈":{"ha":669,"x_min":0,"x_max":0,"o":"m 458 511 b 615 625 514 511 572 547 l 571 656 b 461 568 538 592 503 568 b 211 692 382 568 318 692 b 56 575 156 692 97 656 l 100 547 b 208 635 132 611 168 635 b 458 511 288 635 351 511 z m 458 225 b 615 339 514 225 572 261 l 571 369 b 461 282 538 306 503 282 b 211 406 382 282 318 406 b 56 289 156 406 97 369 l 100 261 b 208 349 132 325 168 349 b 458 225 288 349 351 225 z "},"~":{"ha":669,"x_min":0,"x_max":0,"o":"m 458 368 b 615 482 514 368 572 404 l 571 513 b 461 425 538 449 503 425 b 211 549 382 425 318 549 b 56 432 156 549 97 513 l 100 404 b 208 492 132 468 168 492 b 458 368 288 492 351 368 z "},"∙":{"ha":679,"x_min":0,"x_max":0,"o":"m 332 382 b 396 449 365 382 396 408 b 332 518 396 492 365 518 b 269 449 299 518 269 492 b 332 382 269 408 299 382 z "},"÷":{"ha":669,"x_min":0,"x_max":0,"o":"m 335 649 b 392 708 367 649 392 672 b 335 767 392 743 367 767 b 278 708 303 767 278 743 b 335 649 278 672 303 649 z m 47 429 l 622 429 l 622 488 l 47 488 l 47 429 z m 335 147 b 392 208 367 147 392 172 b 335 267 392 243 367 267 b 278 208 303 267 278 243 b 335 147 278 172 303 147 z "},"∕":{"ha":113,"x_min":0,"x_max":0,"o":"m -229 -17 l -172 -17 l 338 931 l 281 931 l -229 -17 z "},"=":{"ha":669,"x_min":0,"x_max":0,"o":"m 47 572 l 622 572 l 622 631 l 47 631 l 47 572 z m 47 286 l 622 286 l 622 344 l 47 344 l 47 286 z "},">":{"ha":669,"x_min":0,"x_max":0,"o":"m 47 199 l 622 428 l 622 494 l 47 724 l 47 657 l 549 464 l 549 458 l 47 267 l 47 199 z "},"≥":{"ha":669,"x_min":0,"x_max":0,"o":"m 47 211 l 622 432 l 622 503 l 47 724 l 47 657 l 364 538 l 549 471 l 549 465 l 47 279 l 47 211 z m 47 0 l 622 0 l 622 58 l 47 58 l 47 0 z "},"∞":{"ha":1065,"x_min":0,"x_max":0,"o":"m 785 226 b 1007 464 917 226 1007 326 b 782 690 1007 597 915 690 b 511 515 661 690 574 600 l 506 515 b 267 668 456 581 381 668 b 57 456 150 668 57 586 b 254 249 57 338 149 249 b 500 399 375 249 453 347 l 506 399 b 785 226 589 299 667 226 z m 788 297 b 542 465 699 297 629 351 b 776 632 615 571 688 632 b 946 460 885 632 946 558 b 788 297 946 371 888 297 z m 263 307 b 118 458 185 307 118 369 b 261 597 118 547 181 597 b 469 451 339 597 404 540 b 263 307 418 374 347 307 z "},"∫":{"ha":424,"x_min":0,"x_max":0,"o":"m 139 -219 b 297 86 269 -219 297 -87 b 238 793 297 281 238 594 b 332 1036 238 942 253 1036 b 379 1031 351 1036 368 1033 l 389 1086 b 332 1096 379 1092 356 1096 b 171 790 199 1096 171 961 b 232 81 171 596 232 278 b 138 -160 232 -68 218 -160 b 89 -154 118 -160 101 -157 l 79 -211 b 139 -219 90 -217 113 -219 z "},"<":{"ha":669,"x_min":0,"x_max":0,"o":"m 622 199 l 622 267 l 121 458 l 121 464 l 622 657 l 622 724 l 47 494 l 47 428 l 622 199 z "},"≤":{"ha":669,"x_min":0,"x_max":0,"o":"m 622 211 l 622 279 l 121 465 l 121 471 l 306 538 l 622 657 l 622 724 l 47 503 l 47 432 l 622 211 z m 47 0 l 622 0 l 622 58 l 47 58 l 47 0 z "},"¬":{"ha":669,"x_min":0,"x_max":0,"o":"m 558 151 l 622 151 l 622 488 l 47 488 l 47 429 l 558 429 l 558 151 z "},"−":{"ha":669,"x_min":0,"x_max":0,"o":"m 47 429 l 622 429 l 622 488 l 47 488 l 47 429 z "},"×":{"ha":669,"x_min":0,"x_max":0,"o":"m 113 185 l 335 417 l 557 185 l 599 229 l 376 458 l 599 688 l 557 732 l 335 500 l 113 732 l 71 688 l 293 458 l 71 229 l 113 185 z "},"≠":{"ha":669,"x_min":0,"x_max":0,"o":"m 90 108 l 153 108 l 261 286 l 622 286 l 622 344 l 297 344 l 435 572 l 622 572 l 622 631 l 471 631 l 579 808 l 517 808 l 408 631 l 47 631 l 47 572 l 374 572 l 235 344 l 47 344 l 47 286 l 200 286 l 90 108 z "},"∂":{"ha":700,"x_min":0,"x_max":0,"o":"m 368 931 b 163 842 288 931 215 897 l 200 797 b 363 869 243 843 301 869 b 576 506 486 869 576 775 b 575 450 576 486 576 468 b 353 554 514 514 433 554 b 51 247 160 554 51 426 b 293 -17 51 82 167 -17 b 647 507 507 -17 647 194 b 368 931 647 808 531 931 z m 300 46 b 121 251 203 46 121 128 b 356 494 121 382 190 494 b 568 381 422 494 496 464 b 300 46 540 182 444 46 z "},"%":{"ha":1121,"x_min":0,"x_max":0,"o":"m 253 361 b 450 649 374 361 450 464 b 253 935 450 832 374 935 b 54 649 131 935 54 832 b 253 361 54 464 131 361 z m 275 -17 l 332 -17 l 842 931 l 785 931 l 275 -17 z m 253 411 b 114 649 168 411 114 496 b 253 885 114 803 168 885 b 390 649 336 885 390 803 b 253 411 390 496 336 411 z m 869 -17 b 1067 272 990 -17 1067 88 b 869 558 1067 456 990 558 b 671 272 747 558 671 456 b 869 -17 671 88 747 -17 z m 869 33 b 732 272 786 33 732 119 b 869 508 732 425 786 508 b 1007 272 953 508 1007 425 b 869 33 1007 119 953 33 z "},"‰":{"ha":1621,"x_min":0,"x_max":0,"o":"m 257 360 b 454 649 378 360 454 463 b 257 935 454 831 378 935 b 58 649 135 935 58 831 b 257 360 58 463 135 360 z m 271 -17 l 328 -17 l 838 931 l 781 931 l 271 -17 z m 257 410 b 118 649 172 410 118 496 b 257 883 118 801 172 883 b 394 649 340 883 394 801 b 257 410 394 496 340 410 z m 864 -17 b 1063 272 986 -17 1063 88 b 864 558 1063 456 986 558 b 667 272 743 558 667 456 b 864 -17 667 88 743 -17 z m 1364 -17 b 1563 272 1486 -17 1563 88 b 1364 558 1563 456 1486 558 b 1165 272 1243 558 1165 456 b 1364 -17 1165 88 1243 -17 z m 864 33 b 726 272 781 33 726 119 b 864 508 726 425 781 508 b 1003 272 947 508 1003 425 b 864 33 1003 119 947 33 z m 1364 33 b 1226 272 1281 33 1226 119 b 1364 508 1226 425 1281 508 b 1501 272 1447 508 1501 425 b 1364 33 1501 119 1447 33 z "},"+":{"ha":669,"x_min":0,"x_max":0,"o":"m 303 151 l 367 151 l 367 429 l 622 429 l 622 488 l 367 488 l 367 765 l 303 765 l 303 488 l 47 488 l 47 429 l 303 429 l 303 151 z "},"±":{"ha":669,"x_min":0,"x_max":0,"o":"m 303 156 l 367 156 l 367 429 l 622 429 l 622 488 l 367 488 l 367 765 l 303 765 l 303 488 l 47 488 l 47 429 l 303 429 l 303 156 z m 47 0 l 622 0 l 622 58 l 47 58 l 47 0 z "},"∏":{"ha":911,"x_min":0,"x_max":0,"o":"m 129 -167 l 203 -167 l 203 824 l 706 824 l 706 -167 l 782 -167 l 782 888 l 129 888 l 129 -167 z "},"√":{"ha":753,"x_min":0,"x_max":0,"o":"m 393 -143 l 454 -143 l 757 1139 l 699 1139 l 438 24 b 424 -53 432 -1 429 -26 l 418 -53 b 396 24 411 -26 406 -1 l 224 539 l 65 467 l 89 419 l 185 463 l 393 -143 z "},"∑":{"ha":681,"x_min":0,"x_max":0,"o":"m 28 -167 l 681 -167 l 681 -104 l 121 -104 l 121 -99 l 460 363 l 136 819 l 136 825 l 638 825 l 638 888 l 43 888 l 43 836 l 379 360 l 28 -115 l 28 -167 z "},"◌":{"ha":833,"x_min":0,"x_max":0,"o":"m 431 679 b 386 632 407 679 386 663 b 431 585 386 603 407 585 b 476 632 457 585 476 603 b 431 679 476 663 457 679 z m 261 647 b 218 600 238 647 218 633 b 261 554 218 572 238 554 b 306 600 288 554 306 572 b 261 647 306 633 286 647 z m 572 536 b 594 542 581 536 588 538 b 583 510 588 533 583 522 b 626 463 583 481 604 463 b 671 510 654 463 671 481 b 626 556 671 539 651 556 b 606 550 619 556 613 554 b 617 583 613 558 617 569 b 572 629 617 614 597 629 b 529 583 549 629 529 614 b 572 536 529 556 549 536 z m 151 535 b 108 489 128 535 108 519 b 151 440 108 458 128 440 b 197 489 179 440 197 458 b 151 535 197 519 178 535 z m 160 335 b 113 381 160 365 140 381 b 71 335 90 381 71 365 b 113 288 71 304 90 288 b 160 335 140 288 160 304 z m 704 381 b 658 335 678 381 658 365 b 704 288 658 304 678 288 b 749 335 731 288 749 304 b 704 381 749 365 726 381 z m 151 229 b 108 182 128 229 108 213 b 151 135 108 153 128 135 b 197 182 179 135 197 153 b 151 229 197 213 178 229 z m 665 229 b 621 182 642 229 621 213 b 665 135 621 153 642 135 b 710 182 693 135 710 153 b 665 229 710 213 690 229 z m 261 114 b 218 71 238 114 218 99 b 261 21 218 39 238 21 b 306 71 288 21 306 39 b 261 114 306 99 286 114 z m 556 114 b 513 71 532 114 513 99 b 556 21 513 39 532 21 b 600 71 583 21 600 39 b 556 114 600 99 581 114 z m 408 76 b 365 31 385 76 365 60 b 408 -17 365 0 385 -17 b 454 31 435 -17 454 0 b 408 76 454 60 435 76 z "},"◊":{"ha":697,"x_min":0,"x_max":0,"o":"m 311 -14 l 386 -14 l 617 458 l 386 931 l 311 931 l 82 458 l 311 -14 z m 346 47 l 253 239 l 150 458 l 253 676 l 346 869 l 351 869 l 444 676 l 547 458 l 444 239 l 351 47 l 346 47 z "},"|":{"ha":318,"x_min":0,"x_max":0,"o":"m 131 -347 l 188 -347 l 188 1042 l 131 1042 l 131 -347 z "},"¦":{"ha":318,"x_min":0,"x_max":0,"o":"m 131 928 l 131 418 l 131 -229 l 188 -229 l 188 271 l 188 928 l 131 928 z "},"@":{"ha":1139,"x_min":0,"x_max":0,"o":"m 542 -204 b 803 -132 638 -204 724 -181 l 779 -83 b 547 -150 714 -124 638 -150 b 131 285 301 -150 131 14 b 624 828 131 614 371 828 b 1011 435 867 828 1011 671 b 814 131 1011 242 903 131 b 732 314 731 131 701 190 l 782 578 l 731 578 l 718 522 l 715 522 b 600 589 688 568 649 589 b 340 275 438 589 340 413 b 500 85 340 150 413 85 b 669 181 563 85 622 128 l 672 181 b 808 75 679 110 735 75 b 1068 438 925 75 1068 201 b 629 883 1068 704 899 883 b 71 282 332 883 71 646 b 542 -204 71 -29 274 -204 z m 511 140 b 401 279 450 140 401 178 b 599 533 401 394 478 533 b 700 467 640 533 667 518 l 657 231 b 511 140 603 168 554 140 z "},"&":{"ha":807,"x_min":0,"x_max":0,"o":"m 789 46 b 613 147 736 64 676 97 b 775 482 685 242 739 357 l 707 482 b 565 186 675 368 629 267 b 315 489 472 267 378 376 b 525 763 418 567 525 644 b 367 931 525 860 468 931 b 174 725 253 931 174 843 b 235 501 174 656 197 578 b 50 233 139 431 50 353 b 315 -17 50 82 167 -17 b 568 96 419 -17 501 29 b 767 -17 640 40 708 3 l 789 46 z m 239 726 b 365 875 239 808 286 875 b 463 760 436 875 463 818 b 289 539 463 668 379 604 b 239 726 257 604 239 668 z m 121 238 b 263 450 121 324 185 389 b 521 136 329 335 424 224 b 322 43 464 82 394 43 b 121 238 213 43 121 121 z "},"¶":{"ha":726,"x_min":0,"x_max":0,"o":"m 404 333 l 444 333 l 444 915 l 383 915 b 57 625 193 915 57 835 b 404 333 57 417 200 333 z m 519 -111 l 593 -111 l 593 915 l 519 915 l 519 -111 z "},"©":{"ha":1031,"x_min":0,"x_max":0,"o":"m 515 -15 b 960 449 756 -15 960 167 b 515 907 960 728 756 907 b 71 449 275 907 71 728 b 515 -15 71 167 275 -15 z m 515 29 b 122 449 303 29 122 197 b 515 861 122 696 303 861 b 908 449 728 861 908 696 b 515 29 908 197 728 29 z m 522 174 b 713 254 611 174 663 210 l 682 297 b 526 229 640 258 592 229 b 344 447 417 229 344 313 b 529 651 344 569 421 651 b 663 590 585 651 621 631 l 697 632 b 529 708 653 676 604 708 b 279 447 397 708 279 610 b 522 174 279 274 390 174 z "},"®":{"ha":563,"x_min":0,"x_max":0,"o":"m 281 449 b 536 718 419 449 536 557 b 281 990 536 879 419 990 b 26 718 142 990 26 879 b 281 449 26 557 142 449 z m 281 492 b 72 718 164 492 72 586 b 281 947 72 851 164 947 b 490 718 397 947 490 851 b 281 492 490 586 397 492 z m 186 581 l 232 581 l 232 683 l 296 683 l 349 581 l 403 581 l 336 700 b 390 776 367 710 390 742 b 283 867 390 844 338 867 l 186 867 l 186 581 z m 232 724 l 232 825 l 276 825 b 340 774 324 825 340 804 b 271 724 340 738 313 724 l 232 724 z "},"§":{"ha":669,"x_min":0,"x_max":0,"o":"m 601 394 b 213 785 601 651 213 608 b 340 888 213 836 249 888 b 499 824 407 888 454 860 l 536 871 b 338 947 485 914 417 947 b 144 781 207 947 144 863 b 190 668 144 732 163 696 b 68 488 121 629 68 575 b 460 96 68 232 460 279 b 325 -17 460 36 407 -17 b 144 58 242 -17 192 13 l 99 14 b 325 -76 153 -39 229 -76 b 528 100 436 -76 528 -1 b 482 217 528 150 510 188 b 601 394 551 254 601 303 z m 435 254 b 133 492 318 329 133 351 b 236 631 133 560 175 597 b 536 389 351 557 536 535 b 435 254 536 317 500 285 z "},"™":{"ha":854,"x_min":0,"x_max":0,"o":"m 150 513 l 208 513 l 208 885 l 356 885 l 356 939 l 3 939 l 3 885 l 150 885 l 150 513 z m 428 513 l 483 513 l 483 729 l 476 868 l 482 868 l 594 578 l 646 578 l 757 868 l 763 868 l 756 729 l 756 513 l 813 513 l 813 939 l 735 939 l 665 767 l 624 650 l 618 650 l 576 767 l 506 939 l 428 939 l 428 513 z "},"°":{"ha":438,"x_min":0,"x_max":0,"o":"m 219 617 b 381 782 303 617 381 679 b 219 950 381 888 303 950 b 57 782 135 950 57 888 b 219 617 57 679 135 617 z m 219 664 b 108 782 154 664 108 714 b 219 903 108 853 154 903 b 329 782 283 903 329 853 b 219 664 329 714 283 664 z "},"℮":{"ha":1111,"x_min":0,"x_max":0,"o":"m 556 -17 b 947 167 714 -17 856 56 l 875 167 b 558 11 797 72 683 11 b 256 150 439 11 331 64 b 244 178 250 158 244 167 l 244 433 b 250 439 244 436 247 439 l 1047 439 l 1047 450 b 556 917 1047 708 828 917 b 64 450 283 917 64 708 b 556 -17 64 192 283 -17 z m 250 464 b 244 472 247 464 244 467 l 244 722 b 256 753 244 733 250 744 b 558 889 333 836 439 889 b 856 758 672 889 778 839 b 869 728 864 750 869 739 l 869 472 b 861 464 869 467 867 464 l 250 464 z "},"^":{"ha":669,"x_min":0,"x_max":0,"o":"m 90 401 l 157 401 l 261 676 l 332 861 l 338 861 l 408 676 l 513 401 l 581 401 l 371 931 l 300 931 l 90 401 z "},"†":{"ha":593,"x_min":0,"x_max":0,"o":"m 263 -111 l 329 -111 l 325 718 l 511 713 l 511 779 l 325 775 l 329 989 l 263 989 l 268 775 l 82 779 l 82 713 l 268 718 l 263 -111 z "},"‡":{"ha":593,"x_min":0,"x_max":0,"o":"m 263 -111 l 329 -111 l 325 103 l 511 99 l 511 165 l 325 160 l 329 439 l 325 718 l 511 713 l 511 779 l 325 775 l 329 989 l 263 989 l 268 775 l 82 779 l 82 713 l 268 718 l 263 439 l 268 160 l 82 165 l 82 99 l 268 103 l 263 -111 z "},"̈":{"ha":0,"x_min":0,"x_max":0,"o":"m -125 828 b -71 882 -94 828 -71 851 b -125 936 -71 913 -94 936 b -179 882 -157 936 -179 913 b -125 828 -179 851 -157 828 z m 125 828 b 179 882 157 828 179 851 b 125 936 179 913 157 936 b 71 882 94 936 71 913 b 125 828 71 851 94 828 z "},"̇":{"ha":0,"x_min":0,"x_max":0,"o":"m 0 825 b 57 886 32 825 57 850 b 0 944 57 919 32 944 b -57 886 -32 944 -57 919 b 0 825 -57 850 -32 825 z "},"̀":{"ha":0,"x_min":0,"x_max":0,"o":"m 36 797 l 75 833 l -114 1054 l -167 1007 l 36 797 z "},"́":{"ha":0,"x_min":0,"x_max":0,"o":"m -36 797 l 167 1007 l 114 1054 l -75 833 l -36 797 z "},"̋":{"ha":0,"x_min":0,"x_max":0,"o":"m -69 790 l 63 1015 l 8 1044 l -112 811 l -69 790 z m 121 790 l 253 1015 l 199 1044 l 79 811 l 121 790 z "},"̂":{"ha":0,"x_min":0,"x_max":0,"o":"m -161 794 l -3 965 l 3 965 l 161 794 l 196 825 l 35 1025 l -35 1025 l -196 825 l -161 794 z "},"̌":{"ha":0,"x_min":0,"x_max":0,"o":"m -35 796 l 35 796 l 196 994 l 161 1026 l 3 856 l -3 856 l -161 1026 l -196 994 l -35 796 z "},"̆":{"ha":0,"x_min":0,"x_max":0,"o":"m 0 792 b 208 997 144 792 199 906 l 158 1006 b 0 844 147 929 99 844 b -158 1006 -99 844 -147 929 l -208 997 b 0 792 -199 906 -143 792 z "},"̊":{"ha":0,"x_min":0,"x_max":0,"o":"m 0 763 b 138 896 81 763 138 818 b 0 1029 138 974 81 1029 b -137 896 -81 1029 -137 974 b 0 763 -137 818 -81 763 z m 0 801 b -89 896 -49 801 -89 839 b 0 990 -89 953 -49 990 b 89 896 49 990 89 953 b 0 801 89 839 49 801 z "},"̃":{"ha":0,"x_min":0,"x_max":0,"o":"m 104 804 b 229 981 196 804 225 892 l 176 985 b 106 860 174 915 153 860 b -103 989 31 860 -1 989 b -229 813 -196 989 -225 903 l -176 808 b -104 933 -174 879 -153 933 b 104 804 -31 933 1 804 z "},"̄":{"ha":0,"x_min":0,"x_max":0,"o":"m -174 840 l 174 840 l 174 896 l -174 896 l -174 840 z "},"̞":{"ha":0,"x_min":0,"x_max":0,"o":"m -26 -340 l 26 -340 l 26 -193 l 125 -193 l 125 -143 l -125 -143 l -125 -193 l -26 -193 l -26 -340 z "},"̣":{"ha":0,"x_min":0,"x_max":0,"o":"m 0 -274 b 57 -212 32 -274 57 -249 b 0 -154 57 -179 32 -154 b -57 -212 -32 -154 -57 -179 b 0 -274 -57 -249 -32 -274 z "},"̧":{"ha":0,"x_min":0,"x_max":0,"o":"m -110 -306 b 97 -186 24 -299 97 -261 b -3 -90 97 -131 58 -104 l 39 3 l -14 3 l -72 -119 b 36 -189 4 -131 36 -150 b -119 -261 36 -231 0 -254 l -110 -306 z "},"̮":{"ha":0,"x_min":0,"x_max":0,"o":"m 0 -321 b 208 -115 144 -321 199 -207 l 158 -107 b 0 -268 147 -183 99 -268 b -158 -107 -99 -268 -147 -183 l -208 -115 b 0 -321 -199 -207 -143 -321 z "},"̱":{"ha":0,"x_min":0,"x_max":0,"o":"m -174 -225 l 174 -225 l 174 -169 l -174 -169 l -174 -225 z "},"͡":{"ha":0,"x_min":0,"x_max":0,"o":"m -606 774 b 0 938 -431 883 -214 938 b 606 774 214 938 431 883 l 629 814 b 0 993 444 928 240 993 b -629 814 -240 993 -444 928 l -606 774 z "},"ː":{"ha":313,"x_min":0,"x_max":0,"o":"m 126 411 l 186 411 l 214 565 l 97 565 l 126 411 z m 97 61 l 214 61 l 186 218 l 126 218 l 97 61 z "},"ʹ":{"ha":313,"x_min":0,"x_max":0,"o":""},"ˈ":{"ha":138,"x_min":0,"x_max":0,"o":"m 44 736 l 93 736 l 101 1001 l 36 1001 l 44 736 z "},"´":{"ha":744,"x_min":0,"x_max":0,"o":"m 336 797 l 539 1007 l 486 1054 l 297 833 l 336 797 z "},"˘":{"ha":744,"x_min":0,"x_max":0,"o":"m 372 792 b 581 997 517 792 571 906 l 531 1006 b 372 844 519 929 471 844 b 214 1006 274 844 225 929 l 164 997 b 372 792 174 906 229 792 z "},"ˇ":{"ha":744,"x_min":0,"x_max":0,"o":"m 338 796 l 407 796 l 568 994 l 533 1026 l 375 856 l 369 856 l 211 1026 l 176 994 l 338 796 z "},"¸":{"ha":744,"x_min":0,"x_max":0,"o":"m 263 -306 b 469 -186 396 -299 469 -261 b 369 -90 469 -131 431 -104 l 411 3 l 358 3 l 300 -119 b 408 -189 376 -131 408 -150 b 253 -261 408 -231 372 -254 l 263 -306 z "},"ˆ":{"ha":744,"x_min":0,"x_max":0,"o":"m 211 794 l 369 965 l 375 965 l 533 794 l 568 825 l 407 1025 l 338 1025 l 176 825 l 211 794 z "},"¨":{"ha":744,"x_min":0,"x_max":0,"o":"m 247 828 b 301 882 278 828 301 851 b 247 936 301 913 278 936 b 193 882 215 936 193 913 b 247 828 193 851 215 828 z m 497 828 b 551 882 529 828 551 851 b 497 936 551 913 529 936 b 443 882 467 936 443 913 b 497 828 443 851 467 828 z "},"˙":{"ha":744,"x_min":0,"x_max":0,"o":"m 372 825 b 429 886 404 825 429 850 b 372 944 429 919 404 944 b 315 886 340 944 315 919 b 372 825 315 850 340 825 z "},"`":{"ha":744,"x_min":0,"x_max":0,"o":"m 408 797 l 447 833 l 258 1054 l 206 1007 l 408 797 z "},"˝":{"ha":744,"x_min":0,"x_max":0,"o":"m 303 790 l 435 1015 l 381 1044 l 260 811 l 303 790 z m 493 790 l 625 1015 l 571 1044 l 451 811 l 493 790 z "},"¯":{"ha":744,"x_min":0,"x_max":0,"o":"m 199 840 l 546 840 l 546 896 l 199 896 l 199 840 z "},"˛":{"ha":744,"x_min":0,"x_max":0,"o":""},"˚":{"ha":744,"x_min":0,"x_max":0,"o":"m 372 763 b 510 896 453 763 510 818 b 372 1029 510 974 453 1029 b 235 896 292 1029 235 974 b 372 763 235 818 292 763 z m 372 801 b 283 896 324 801 283 839 b 372 990 283 953 324 990 b 461 896 421 990 461 953 b 372 801 461 839 421 801 z "},"˜":{"ha":744,"x_min":0,"x_max":0,"o":"m 476 804 b 601 981 568 804 597 892 l 549 985 b 478 860 546 915 525 860 b 269 989 403 860 371 989 b 143 813 176 989 147 903 l 196 808 b 268 933 199 879 219 933 b 476 804 342 933 374 804 z "},"ְ":{"ha":0,"x_min":0,"x_max":0,"o":"m 89 -106 b 49 -147 65 -106 49 -125 b 89 -189 49 -169 65 -189 b 128 -147 113 -189 128 -169 b 89 -106 128 -125 113 -106 z m 89 -233 b 49 -276 65 -233 49 -257 b 89 -319 49 -299 65 -319 b 128 -276 113 -319 128 -299 b 89 -233 128 -256 113 -233 z "},"ֱ":{"ha":0,"x_min":0,"x_max":0,"o":"m 89 -106 b 49 -147 65 -106 49 -125 b 89 -189 49 -169 65 -189 b 128 -147 113 -189 128 -169 b 89 -106 128 -125 113 -106 z m 233 -106 b 193 -147 210 -106 193 -125 b 233 -189 193 -169 210 -189 b 272 -147 257 -189 272 -169 b 233 -106 272 -125 257 -106 z m 378 -106 b 338 -147 354 -106 338 -125 b 378 -189 338 -169 354 -189 b 417 -147 401 -189 417 -169 b 378 -106 417 -125 401 -106 z m 160 -233 b 119 -276 136 -233 119 -257 b 160 -319 119 -299 136 -319 b 199 -276 183 -319 199 -299 b 160 -233 199 -256 183 -233 z m 378 -233 b 338 -276 354 -233 338 -257 b 378 -319 338 -299 354 -319 b 417 -276 401 -319 417 -299 b 378 -233 417 -256 401 -233 z "},"ֲ":{"ha":0,"x_min":0,"x_max":0,"o":"m 363 -106 b 322 -147 339 -106 322 -125 b 363 -189 322 -169 339 -189 b 401 -147 386 -189 401 -169 b 363 -106 401 -125 386 -106 z m 265 -118 l 49 -118 l 49 -165 l 265 -165 l 265 -118 z m 363 -233 b 322 -276 339 -233 322 -257 b 363 -319 322 -299 339 -319 b 401 -276 386 -319 401 -299 b 363 -233 401 -256 386 -233 z "},"ֳ":{"ha":0,"x_min":0,"x_max":0,"o":"m 363 -106 b 322 -147 339 -106 322 -125 b 363 -189 322 -169 339 -189 b 401 -147 386 -189 401 -169 b 363 -106 401 -125 386 -106 z m 265 -118 l 49 -118 l 49 -165 l 142 -165 l 131 -304 l 182 -304 l 171 -165 l 265 -165 l 265 -118 z m 363 -233 b 322 -276 339 -233 322 -257 b 363 -319 322 -299 339 -319 b 401 -276 386 -319 401 -299 b 363 -233 401 -256 386 -233 z "},"ִ":{"ha":0,"x_min":0,"x_max":0,"o":"m 89 -106 b 49 -147 65 -106 49 -125 b 89 -189 49 -169 65 -189 b 128 -147 113 -189 128 -169 b 89 -106 128 -125 113 -106 z "},"ֵ":{"ha":0,"x_min":0,"x_max":0,"o":"m 89 -106 b 49 -147 65 -106 49 -125 b 89 -189 49 -169 65 -189 b 128 -147 113 -189 128 -169 b 89 -106 128 -125 113 -106 z m 238 -106 b 197 -147 214 -106 197 -125 b 238 -189 197 -169 214 -189 b 276 -147 261 -189 276 -169 b 238 -106 276 -125 261 -106 z "},"ֶ":{"ha":0,"x_min":0,"x_max":0,"o":"m 89 -106 b 49 -147 65 -106 49 -125 b 89 -189 49 -169 65 -189 b 128 -147 113 -189 128 -169 b 89 -106 128 -125 113 -106 z m 238 -106 b 197 -147 214 -106 197 -125 b 238 -189 197 -169 214 -189 b 276 -147 261 -189 276 -169 b 238 -106 276 -125 261 -106 z m 163 -221 b 122 -261 139 -221 122 -242 b 163 -306 122 -285 139 -306 b 201 -261 186 -306 201 -285 b 163 -221 201 -242 186 -221 z "},"ַ":{"ha":0,"x_min":0,"x_max":0,"o":"m 265 -96 l 49 -96 l 49 -143 l 265 -143 l 265 -96 z "},"ָ":{"ha":0,"x_min":0,"x_max":0,"o":"m 265 -96 l 49 -96 l 49 -143 l 142 -143 l 131 -282 l 182 -282 l 171 -143 l 265 -143 l 265 -96 z "},"ֹ":{"ha":0,"x_min":0,"x_max":0,"o":"m 89 792 b 49 750 65 792 49 771 b 89 707 49 726 65 707 b 128 750 113 707 128 726 b 89 792 128 772 113 792 z "},"ֺ":{"ha":0,"x_min":0,"x_max":0,"o":"m 89 707 b 128 750 113 707 128 728 b 89 792 128 771 113 792 b 49 750 65 792 49 771 b 89 707 49 728 65 707 z "},"ֻ":{"ha":0,"x_min":0,"x_max":0,"o":"m 89 -106 b 49 -147 65 -106 49 -125 b 89 -189 49 -169 65 -189 b 128 -147 113 -189 128 -169 b 89 -106 128 -125 113 -106 z m 179 -186 b 139 -228 156 -186 139 -207 b 179 -271 139 -250 156 -271 b 218 -228 203 -271 218 -250 b 179 -186 218 -207 203 -186 z m 269 -268 b 229 -310 247 -268 229 -287 b 269 -351 229 -332 247 -351 b 310 -310 293 -351 310 -332 b 269 -268 310 -287 293 -268 z "},"ּ":{"ha":0,"x_min":0,"x_max":0,"o":"m 89 446 b 49 404 65 446 49 424 b 89 361 49 381 65 361 b 128 404 113 361 128 381 b 89 446 128 425 113 446 z "},"ֿ":{"ha":0,"x_min":0,"x_max":0,"o":"m 307 792 l 44 792 l 44 743 l 307 743 l 307 792 z "},"ׁ":{"ha":0,"x_min":0,"x_max":0,"o":"m 89 811 b 49 769 65 811 49 789 b 89 725 49 747 65 725 b 128 769 113 725 128 747 b 89 811 128 789 113 811 z "},"ׂ":{"ha":0,"x_min":0,"x_max":0,"o":"m 89 811 b 49 769 65 811 49 789 b 89 725 49 747 65 725 b 128 769 113 725 128 747 b 89 811 128 789 113 811 z "},"ׇ":{"ha":0,"x_min":0,"x_max":0,"o":"m 176 -96 l 49 -96 l 49 -143 l 103 -143 l 86 -282 l 138 -282 l 121 -143 l 176 -143 l 176 -96 z "},"":{"ha":304,"x_min":0,"x_max":0,"o":"m 42 -315 b 199 -115 151 -315 199 -247 l 199 668 l 128 668 l 128 -111 b 39 -254 128 -196 113 -254 b -31 -242 13 -254 -12 -247 l -46 -299 b 42 -315 -25 -307 10 -315 z "}}}
